<svg width="170" height="18" viewBox="0 0 170 18" fill="none" xmlns="http://www.w3.org/2000/svg">
    <path d="M5.3596 13.27L0.4456 8.5V8.428L5.3596 3.658L6.1156 4.486L2.4976 7.852H10.3996V9.076H2.4976L6.1156 12.442L5.3596 13.27ZM20.5035 13.216C20.0955 13.216 19.6695 13.12 19.2255 12.928C18.7935 12.724 18.3855 12.448 18.0015 12.1H17.9475L17.8215 13H16.6335V0.184H18.1095V3.676L18.0735 5.26C18.4695 4.912 18.9015 4.624 19.3695 4.396C19.8375 4.156 20.3175 4.036 20.8095 4.036C21.3735 4.036 21.8715 4.144 22.3035 4.36C22.7355 4.564 23.0955 4.864 23.3835 5.26C23.6835 5.644 23.9055 6.112 24.0495 6.664C24.2055 7.204 24.2835 7.81 24.2835 8.482C24.2835 9.226 24.1815 9.892 23.9775 10.48C23.7735 11.068 23.4975 11.566 23.1495 11.974C22.8015 12.382 22.3995 12.694 21.9435 12.91C21.4875 13.114 21.0075 13.216 20.5035 13.216ZM20.2515 11.974C20.6115 11.974 20.9415 11.896 21.2415 11.74C21.5535 11.572 21.8175 11.344 22.0335 11.056C22.2615 10.756 22.4355 10.39 22.5555 9.958C22.6875 9.526 22.7535 9.04 22.7535 8.5C22.7535 8.02 22.7115 7.582 22.6275 7.186C22.5435 6.79 22.4055 6.454 22.2135 6.178C22.0335 5.89 21.7935 5.668 21.4935 5.512C21.2055 5.356 20.8575 5.278 20.4495 5.278C19.7415 5.278 18.9615 5.674 18.1095 6.466V11.056C18.4935 11.392 18.8715 11.632 19.2435 11.776C19.6275 11.908 19.9635 11.974 20.2515 11.974ZM28.5685 13.216C27.8365 13.216 27.2245 13 26.7325 12.568C26.2525 12.136 26.0125 11.524 26.0125 10.732C26.0125 9.772 26.4385 9.04 27.2905 8.536C28.1425 8.02 29.5045 7.66 31.3765 7.456C31.3765 7.18 31.3465 6.91 31.2865 6.646C31.2385 6.382 31.1485 6.148 31.0165 5.944C30.8845 5.74 30.6985 5.578 30.4585 5.458C30.2305 5.326 29.9365 5.26 29.5765 5.26C29.0725 5.26 28.5985 5.356 28.1545 5.548C27.7105 5.74 27.3145 5.956 26.9665 6.196L26.3905 5.17C26.7985 4.906 27.2965 4.654 27.8845 4.414C28.4725 4.162 29.1205 4.036 29.8285 4.036C30.8965 4.036 31.6705 4.366 32.1505 5.026C32.6305 5.674 32.8705 6.544 32.8705 7.636V13H31.6465L31.5205 11.956H31.4665C31.0465 12.304 30.5965 12.604 30.1165 12.856C29.6365 13.096 29.1205 13.216 28.5685 13.216ZM29.0005 12.028C29.4205 12.028 29.8165 11.932 30.1885 11.74C30.5605 11.536 30.9565 11.242 31.3765 10.858V8.428C30.6445 8.524 30.0265 8.638 29.5225 8.77C29.0305 8.902 28.6285 9.058 28.3165 9.238C28.0165 9.418 27.7945 9.628 27.6505 9.868C27.5185 10.096 27.4525 10.348 27.4525 10.624C27.4525 11.128 27.6025 11.488 27.9025 11.704C28.2025 11.92 28.5685 12.028 29.0005 12.028ZM39.2948 13.216C38.7188 13.216 38.1788 13.114 37.6748 12.91C37.1708 12.706 36.7328 12.412 36.3608 12.028C36.0008 11.632 35.7128 11.152 35.4968 10.588C35.2928 10.012 35.1908 9.364 35.1908 8.644C35.1908 7.912 35.3048 7.264 35.5328 6.7C35.7608 6.124 36.0668 5.638 36.4508 5.242C36.8348 4.846 37.2788 4.546 37.7828 4.342C38.2988 4.138 38.8388 4.036 39.4028 4.036C39.9788 4.036 40.4708 4.138 40.8788 4.342C41.2868 4.546 41.6468 4.786 41.9588 5.062L41.2028 6.034C40.9508 5.806 40.6808 5.62 40.3928 5.476C40.1168 5.332 39.8048 5.26 39.4568 5.26C39.0608 5.26 38.6948 5.344 38.3588 5.512C38.0228 5.668 37.7348 5.896 37.4948 6.196C37.2548 6.496 37.0628 6.856 36.9188 7.276C36.7868 7.684 36.7208 8.14 36.7208 8.644C36.7208 9.148 36.7868 9.604 36.9188 10.012C37.0508 10.42 37.2308 10.774 37.4588 11.074C37.6988 11.362 37.9868 11.59 38.3228 11.758C38.6588 11.914 39.0248 11.992 39.4208 11.992C39.8288 11.992 40.2008 11.908 40.5368 11.74C40.8848 11.56 41.1968 11.35 41.4728 11.11L42.1208 12.1C41.7248 12.448 41.2868 12.724 40.8068 12.928C40.3268 13.12 39.8228 13.216 39.2948 13.216ZM44.2637 13V0.184H45.7217V8.86H45.7757L49.5017 4.252H51.1397L48.2057 7.762L51.5357 13H49.9157L47.3597 8.788L45.7217 10.696V13H44.2637ZM59.9651 13.216C59.4971 13.216 59.1011 13.144 58.7771 13C58.4651 12.856 58.2071 12.658 58.0031 12.406C57.8111 12.154 57.6731 11.848 57.5891 11.488C57.5051 11.128 57.4631 10.732 57.4631 10.3V5.458H56.1671V4.342L57.5351 4.252L57.7151 1.804H58.9571V4.252H61.3151V5.458H58.9571V10.318C58.9571 10.858 59.0531 11.278 59.2451 11.578C59.4491 11.866 59.8031 12.01 60.3071 12.01C60.4631 12.01 60.6311 11.986 60.8111 11.938C60.9911 11.89 61.1531 11.836 61.2971 11.776L61.5851 12.892C61.3451 12.976 61.0811 13.048 60.7931 13.108C60.5171 13.18 60.2411 13.216 59.9651 13.216ZM66.665 13.216C66.125 13.216 65.609 13.114 65.117 12.91C64.637 12.706 64.211 12.412 63.839 12.028C63.467 11.632 63.167 11.152 62.939 10.588C62.723 10.012 62.615 9.364 62.615 8.644C62.615 7.912 62.723 7.264 62.939 6.7C63.167 6.124 63.467 5.638 63.839 5.242C64.211 4.846 64.637 4.546 65.117 4.342C65.609 4.138 66.125 4.036 66.665 4.036C67.205 4.036 67.715 4.138 68.195 4.342C68.687 4.546 69.119 4.846 69.491 5.242C69.863 5.638 70.157 6.124 70.373 6.7C70.601 7.264 70.715 7.912 70.715 8.644C70.715 9.364 70.601 10.012 70.373 10.588C70.157 11.152 69.863 11.632 69.491 12.028C69.119 12.412 68.687 12.706 68.195 12.91C67.715 13.114 67.205 13.216 66.665 13.216ZM66.665 11.992C67.037 11.992 67.379 11.914 67.691 11.758C68.003 11.59 68.267 11.362 68.483 11.074C68.711 10.774 68.885 10.42 69.005 10.012C69.125 9.604 69.185 9.148 69.185 8.644C69.185 8.14 69.125 7.684 69.005 7.276C68.885 6.856 68.711 6.496 68.483 6.196C68.267 5.896 68.003 5.668 67.691 5.512C67.379 5.344 67.037 5.26 66.665 5.26C66.293 5.26 65.951 5.344 65.639 5.512C65.327 5.668 65.057 5.896 64.829 6.196C64.613 6.496 64.445 6.856 64.325 7.276C64.205 7.684 64.145 8.14 64.145 8.644C64.145 9.148 64.205 9.604 64.325 10.012C64.445 10.42 64.613 10.774 64.829 11.074C65.057 11.362 65.327 11.59 65.639 11.758C65.951 11.914 66.293 11.992 66.665 11.992ZM80.6002 13.216C80.0122 13.216 79.4602 13.114 78.9442 12.91C78.4402 12.694 77.9962 12.394 77.6122 12.01C77.2402 11.614 76.9462 11.134 76.7302 10.57C76.5142 10.006 76.4062 9.364 76.4062 8.644C76.4062 7.924 76.5142 7.282 76.7302 6.718C76.9582 6.142 77.2522 5.656 77.6122 5.26C77.9842 4.864 78.4042 4.564 78.8722 4.36C79.3402 4.144 79.8262 4.036 80.3302 4.036C80.8822 4.036 81.3742 4.132 81.8062 4.324C82.2502 4.516 82.6162 4.792 82.9042 5.152C83.2042 5.512 83.4322 5.944 83.5882 6.448C83.7442 6.952 83.8222 7.516 83.8222 8.14C83.8222 8.296 83.8162 8.452 83.8042 8.608C83.8042 8.752 83.7922 8.878 83.7682 8.986H77.8642C77.9242 9.922 78.2122 10.666 78.7282 11.218C79.2562 11.758 79.9402 12.028 80.7802 12.028C81.2002 12.028 81.5842 11.968 81.9322 11.848C82.2922 11.716 82.6342 11.548 82.9582 11.344L83.4802 12.316C83.0962 12.556 82.6702 12.766 82.2022 12.946C81.7342 13.126 81.2002 13.216 80.6002 13.216ZM77.8462 7.924H82.5262C82.5262 7.036 82.3342 6.364 81.9502 5.908C81.5782 5.44 81.0502 5.206 80.3662 5.206C80.0542 5.206 79.7542 5.266 79.4662 5.386C79.1902 5.506 78.9382 5.686 78.7102 5.926C78.4822 6.154 78.2902 6.436 78.1342 6.772C77.9902 7.108 77.8942 7.492 77.8462 7.924ZM89.1878 13.216C88.0838 13.216 87.2018 12.82 86.5418 12.028C85.8938 11.236 85.5698 10.108 85.5698 8.644C85.5698 7.936 85.6718 7.3 85.8758 6.736C86.0918 6.16 86.3738 5.674 86.7218 5.278C87.0698 4.882 87.4718 4.576 87.9278 4.36C88.3838 4.144 88.8638 4.036 89.3678 4.036C89.8718 4.036 90.3098 4.126 90.6818 4.306C91.0538 4.486 91.4318 4.732 91.8158 5.044L91.7438 3.55V0.184H93.2378V13H92.0138L91.8878 11.974H91.8338C91.4858 12.31 91.0838 12.604 90.6278 12.856C90.1838 13.096 89.7038 13.216 89.1878 13.216ZM89.5118 11.974C89.9198 11.974 90.3038 11.878 90.6638 11.686C91.0238 11.482 91.3838 11.176 91.7438 10.768V6.196C91.3718 5.86 91.0118 5.626 90.6638 5.494C90.3278 5.35 89.9798 5.278 89.6198 5.278C89.2718 5.278 88.9418 5.362 88.6298 5.53C88.3298 5.686 88.0658 5.914 87.8378 6.214C87.6098 6.502 87.4298 6.85 87.2978 7.258C87.1658 7.666 87.0998 8.122 87.0998 8.626C87.0998 9.682 87.3098 10.504 87.7298 11.092C88.1498 11.68 88.7438 11.974 89.5118 11.974ZM98.9561 13.216C98.0201 13.216 97.3361 12.928 96.9041 12.352C96.4841 11.776 96.2741 10.924 96.2741 9.796V4.252H97.7681V9.598C97.7681 10.426 97.8941 11.026 98.1461 11.398C98.4101 11.758 98.8301 11.938 99.4061 11.938C99.8621 11.938 100.264 11.824 100.612 11.596C100.96 11.356 101.344 10.978 101.764 10.462V4.252H103.24V13H102.016L101.89 11.632H101.836C101.428 12.112 100.996 12.496 100.54 12.784C100.096 13.072 99.5681 13.216 98.9561 13.216ZM105.201 13L108.639 6.898L105.435 1.192H107.091L108.693 4.216C108.849 4.492 108.993 4.762 109.125 5.026C109.269 5.278 109.431 5.578 109.611 5.926H109.683C109.851 5.578 109.995 5.278 110.115 5.026C110.247 4.762 110.385 4.492 110.529 4.216L112.095 1.192H113.679L110.457 6.97L113.895 13H112.239L110.511 9.814C110.355 9.526 110.193 9.232 110.025 8.932C109.869 8.62 109.695 8.284 109.503 7.924H109.431C109.263 8.284 109.101 8.62 108.945 8.932C108.789 9.232 108.639 9.526 108.495 9.814L106.785 13H105.201ZM119.184 13.216C118.608 13.216 118.068 13.114 117.564 12.91C117.06 12.706 116.622 12.412 116.25 12.028C115.89 11.632 115.602 11.152 115.386 10.588C115.182 10.012 115.08 9.364 115.08 8.644C115.08 7.912 115.194 7.264 115.422 6.7C115.65 6.124 115.956 5.638 116.34 5.242C116.724 4.846 117.168 4.546 117.672 4.342C118.188 4.138 118.728 4.036 119.292 4.036C119.868 4.036 120.36 4.138 120.768 4.342C121.176 4.546 121.536 4.786 121.848 5.062L121.092 6.034C120.84 5.806 120.57 5.62 120.282 5.476C120.006 5.332 119.694 5.26 119.346 5.26C118.95 5.26 118.584 5.344 118.248 5.512C117.912 5.668 117.624 5.896 117.384 6.196C117.144 6.496 116.952 6.856 116.808 7.276C116.676 7.684 116.61 8.14 116.61 8.644C116.61 9.148 116.676 9.604 116.808 10.012C116.94 10.42 117.12 10.774 117.348 11.074C117.588 11.362 117.876 11.59 118.212 11.758C118.548 11.914 118.914 11.992 119.31 11.992C119.718 11.992 120.09 11.908 120.426 11.74C120.774 11.56 121.086 11.35 121.362 11.11L122.01 12.1C121.614 12.448 121.176 12.724 120.696 12.928C120.216 13.12 119.712 13.216 119.184 13.216ZM124.153 13V0.184H125.629V3.676L125.575 5.476C125.995 5.08 126.433 4.744 126.889 4.468C127.345 4.18 127.879 4.036 128.491 4.036C129.415 4.036 130.087 4.324 130.507 4.9C130.939 5.476 131.155 6.328 131.155 7.456V13H129.679V7.654C129.679 6.826 129.547 6.232 129.283 5.872C129.019 5.5 128.599 5.314 128.023 5.314C127.567 5.314 127.165 5.428 126.817 5.656C126.469 5.884 126.073 6.22 125.629 6.664V13H124.153ZM136.176 13.216C135.444 13.216 134.832 13 134.34 12.568C133.86 12.136 133.62 11.524 133.62 10.732C133.62 9.772 134.046 9.04 134.898 8.536C135.75 8.02 137.112 7.66 138.984 7.456C138.984 7.18 138.954 6.91 138.894 6.646C138.846 6.382 138.756 6.148 138.624 5.944C138.492 5.74 138.306 5.578 138.066 5.458C137.838 5.326 137.544 5.26 137.184 5.26C136.68 5.26 136.206 5.356 135.762 5.548C135.318 5.74 134.922 5.956 134.574 6.196L133.998 5.17C134.406 4.906 134.904 4.654 135.492 4.414C136.08 4.162 136.728 4.036 137.436 4.036C138.504 4.036 139.278 4.366 139.758 5.026C140.238 5.674 140.478 6.544 140.478 7.636V13H139.254L139.128 11.956H139.074C138.654 12.304 138.204 12.604 137.724 12.856C137.244 13.096 136.728 13.216 136.176 13.216ZM136.608 12.028C137.028 12.028 137.424 11.932 137.796 11.74C138.168 11.536 138.564 11.242 138.984 10.858V8.428C138.252 8.524 137.634 8.638 137.13 8.77C136.638 8.902 136.236 9.058 135.924 9.238C135.624 9.418 135.402 9.628 135.258 9.868C135.126 10.096 135.06 10.348 135.06 10.624C135.06 11.128 135.21 11.488 135.51 11.704C135.81 11.92 136.176 12.028 136.608 12.028ZM143.447 13V4.252H144.671L144.797 5.512H144.851C145.271 5.092 145.709 4.744 146.165 4.468C146.633 4.18 147.173 4.036 147.785 4.036C148.709 4.036 149.381 4.324 149.801 4.9C150.233 5.476 150.449 6.328 150.449 7.456V13H148.973V7.654C148.973 6.826 148.841 6.232 148.577 5.872C148.313 5.5 147.893 5.314 147.317 5.314C146.861 5.314 146.459 5.428 146.111 5.656C145.763 5.884 145.367 6.22 144.923 6.664V13H143.447ZM156.458 17.032C155.918 17.032 155.426 16.978 154.982 16.87C154.538 16.774 154.154 16.624 153.83 16.42C153.518 16.216 153.272 15.97 153.092 15.682C152.924 15.394 152.84 15.058 152.84 14.674C152.84 14.302 152.954 13.948 153.182 13.612C153.41 13.276 153.722 12.97 154.118 12.694V12.622C153.902 12.49 153.716 12.31 153.56 12.082C153.416 11.842 153.344 11.548 153.344 11.2C153.344 10.828 153.446 10.504 153.65 10.228C153.854 9.952 154.07 9.736 154.298 9.58V9.508C154.01 9.268 153.746 8.95 153.506 8.554C153.278 8.146 153.164 7.678 153.164 7.15C153.164 6.67 153.248 6.238 153.416 5.854C153.596 5.47 153.836 5.146 154.136 4.882C154.436 4.606 154.784 4.396 155.18 4.252C155.588 4.108 156.014 4.036 156.458 4.036C156.698 4.036 156.92 4.06 157.124 4.108C157.34 4.144 157.532 4.192 157.7 4.252H160.742V5.386H158.942C159.146 5.59 159.314 5.848 159.446 6.16C159.59 6.472 159.662 6.814 159.662 7.186C159.662 7.654 159.578 8.08 159.41 8.464C159.242 8.836 159.014 9.154 158.726 9.418C158.438 9.67 158.096 9.868 157.7 10.012C157.316 10.156 156.902 10.228 156.458 10.228C156.242 10.228 156.02 10.204 155.792 10.156C155.564 10.096 155.348 10.018 155.144 9.922C154.988 10.054 154.856 10.204 154.748 10.372C154.64 10.528 154.586 10.726 154.586 10.966C154.586 11.242 154.694 11.47 154.91 11.65C155.126 11.83 155.534 11.92 156.134 11.92H157.826C158.846 11.92 159.608 12.088 160.112 12.424C160.628 12.748 160.886 13.276 160.886 14.008C160.886 14.416 160.784 14.8 160.58 15.16C160.376 15.532 160.082 15.856 159.698 16.132C159.314 16.408 158.846 16.624 158.294 16.78C157.754 16.948 157.142 17.032 156.458 17.032ZM156.458 9.238C156.71 9.238 156.944 9.19 157.16 9.094C157.388 8.998 157.586 8.86 157.754 8.68C157.934 8.5 158.072 8.284 158.168 8.032C158.264 7.768 158.312 7.474 158.312 7.15C158.312 6.502 158.132 6.004 157.772 5.656C157.412 5.296 156.974 5.116 156.458 5.116C155.942 5.116 155.504 5.296 155.144 5.656C154.784 6.004 154.604 6.502 154.604 7.15C154.604 7.474 154.652 7.768 154.748 8.032C154.844 8.284 154.976 8.5 155.144 8.68C155.324 8.86 155.522 8.998 155.738 9.094C155.966 9.19 156.206 9.238 156.458 9.238ZM156.674 16.006C157.094 16.006 157.472 15.952 157.808 15.844C158.156 15.748 158.45 15.616 158.69 15.448C158.93 15.292 159.116 15.106 159.248 14.89C159.38 14.674 159.446 14.452 159.446 14.224C159.446 13.816 159.296 13.534 158.996 13.378C158.696 13.222 158.258 13.144 157.682 13.144H156.17C156.002 13.144 155.816 13.132 155.612 13.108C155.42 13.096 155.228 13.06 155.036 13C154.724 13.228 154.496 13.468 154.352 13.72C154.208 13.972 154.136 14.224 154.136 14.476C154.136 14.944 154.358 15.316 154.802 15.592C155.258 15.868 155.882 16.006 156.674 16.006ZM166.092 13.216C165.504 13.216 164.952 13.114 164.436 12.91C163.932 12.694 163.488 12.394 163.104 12.01C162.732 11.614 162.438 11.134 162.222 10.57C162.006 10.006 161.898 9.364 161.898 8.644C161.898 7.924 162.006 7.282 162.222 6.718C162.45 6.142 162.744 5.656 163.104 5.26C163.476 4.864 163.896 4.564 164.364 4.36C164.832 4.144 165.318 4.036 165.822 4.036C166.374 4.036 166.866 4.132 167.298 4.324C167.742 4.516 168.108 4.792 168.396 5.152C168.696 5.512 168.924 5.944 169.08 6.448C169.236 6.952 169.314 7.516 169.314 8.14C169.314 8.296 169.308 8.452 169.296 8.608C169.296 8.752 169.284 8.878 169.26 8.986H163.356C163.416 9.922 163.704 10.666 164.22 11.218C164.748 11.758 165.432 12.028 166.272 12.028C166.692 12.028 167.076 11.968 167.424 11.848C167.784 11.716 168.126 11.548 168.45 11.344L168.972 12.316C168.588 12.556 168.162 12.766 167.694 12.946C167.226 13.126 166.692 13.216 166.092 13.216ZM163.338 7.924H168.018C168.018 7.036 167.826 6.364 167.442 5.908C167.07 5.44 166.542 5.206 165.858 5.206C165.546 5.206 165.246 5.266 164.958 5.386C164.682 5.506 164.43 5.686 164.202 5.926C163.974 6.154 163.782 6.436 163.626 6.772C163.482 7.108 163.386 7.492 163.338 7.924Z"
          fill="white"/>
</svg>
