<svg class="eduid" width="32" height="33" viewBox="0 0 32 33" fill="none" xmlns="http://www.w3.org/2000/svg">
<rect width="32" height="32" transform="translate(0 0.5)" fill="#002568"/>
<path fill-rule="evenodd" clip-rule="evenodd" d="M5.40496 15.7528C4.54675 15.7528 4.1469 16.4351 4.09814 17.0011H6.71147C6.69227 16.4549 6.32168 15.7528 5.40496 15.7528ZM7.20884 17.7227H4.10789C4.17616 18.4249 4.71254 19.0195 5.58995 19.0195C5.93159 19.0195 6.32168 18.9122 6.64321 18.7074C6.71147 18.6684 6.78949 18.6489 6.85806 18.6489C7.07262 18.6489 7.29662 18.8245 7.29662 19.078C7.29662 19.6144 6.08732 19.8582 5.48298 19.8582C4.06888 19.8582 3.01562 18.8732 3.01562 17.3814C3.01562 16.0161 4.01037 14.9141 5.40496 14.9141C6.50667 14.9141 7.30637 15.5772 7.59894 16.5915C7.65776 16.7865 7.71597 17.0108 7.71597 17.2156C7.71597 17.4884 7.49197 17.7227 7.20884 17.7227Z" fill="white"/>
<path fill-rule="evenodd" clip-rule="evenodd" d="M12.0459 16.4659C11.8115 16.1148 11.3242 15.8418 10.8366 15.8418C10.0369 15.8418 9.52003 16.4851 9.52003 17.3921C9.52003 18.2893 10.0369 18.933 10.8366 18.933C11.3242 18.933 11.8115 18.6599 12.0459 18.3186V16.4659ZM12.5625 19.8009C12.2699 19.8009 12.0459 19.5669 12.0459 19.2841V19.0988C11.6753 19.5766 11.1386 19.8595 10.5343 19.8595C9.33473 19.8595 8.44727 18.9427 8.44727 17.3921C8.44727 15.871 9.32498 14.9153 10.5343 14.9153C11.1194 14.9153 11.6656 15.1884 12.0459 15.676V13.6963C12.0459 13.4134 12.2699 13.1797 12.5823 13.1797C12.855 13.1797 13.0894 13.4134 13.0894 13.6963V19.2841C13.0894 19.5669 12.855 19.8009 12.5625 19.8009Z" fill="white"/>
<path fill-rule="evenodd" clip-rule="evenodd" d="M17.9166 19.7959C17.624 19.7959 17.4 19.5615 17.4 19.279V19.1132C17.0586 19.4936 16.4735 19.8541 15.7323 19.8541C14.7181 19.8541 14.2207 19.318 14.2207 18.3623V15.4756C14.2207 15.2028 14.445 14.9688 14.7571 14.9688C15.0302 14.9688 15.2642 15.2028 15.2642 15.4756V17.9819C15.2642 18.7036 15.6348 18.9276 16.2001 18.9276C16.717 18.9276 17.1562 18.635 17.4 18.3233V15.4756C17.4 15.2028 17.624 14.9688 17.9361 14.9688C18.2091 14.9688 18.4435 15.2028 18.4435 15.4756V19.279C18.4435 19.5615 18.2091 19.7959 17.9166 19.7959Z" fill="white"/>
<path fill-rule="evenodd" clip-rule="evenodd" d="M20.9387 19.8012C20.6266 19.8012 20.373 19.5379 20.373 19.2256V13.7453C20.373 13.443 20.6266 13.1797 20.9579 13.1797C21.2703 13.1797 21.5333 13.443 21.5333 13.7453V19.2256C21.5333 19.5379 21.2703 19.8012 20.9387 19.8012Z" fill="#53A6F0"/>
<path fill-rule="evenodd" clip-rule="evenodd" d="M25.5436 14.2584H24.2758V18.7149H25.5436C26.9476 18.7149 27.7574 17.7104 27.7574 16.4914C27.7574 15.2431 26.9866 14.2584 25.5436 14.2584ZM25.5436 19.7386H23.8174C23.4276 19.7386 23.1152 19.4171 23.1152 19.0367V13.9362C23.1152 13.5562 23.4276 13.2344 23.8174 13.2344H25.5436C27.5718 13.2344 28.9566 14.5802 28.9566 16.4914C28.9566 18.4126 27.5718 19.7386 25.5436 19.7386Z" fill="#53A6F0"/>
</svg>
