<svg width="43" height="19" viewBox="0 0 43 19" fill="none" xmlns="http://www.w3.org/2000/svg">
<mask id="mask0_1014_12823" style="mask-type:luminance" maskUnits="userSpaceOnUse" x="0" y="0" width="43" height="19">
<path fill-rule="evenodd" clip-rule="evenodd" d="M0 0.09375H42.7498V18.0935H0V0.09375Z" fill="white"/>
</mask>
<g mask="url(#mask0_1014_12823)">
<path fill-rule="evenodd" clip-rule="evenodd" d="M37.8643 18.0938H4.88571C2.18758 18.0938 0 15.8957 0 13.1847V5.00284C0 2.29139 2.18758 0.09375 4.88571 0.09375H37.8643C40.5628 0.09375 42.75 2.29139 42.75 5.00284V13.1847C42.75 15.8957 40.5628 18.0938 37.8643 18.0938Z" fill="#898585"/>
</g>
<path fill-rule="evenodd" clip-rule="evenodd" d="M7.54902 7.24219C6.45351 7.24219 5.9431 8.17378 5.88086 8.94643H9.21679C9.19228 8.20083 8.71922 7.24219 7.54902 7.24219ZM9.85265 9.92831H5.89428C5.98142 10.8869 6.66612 11.6987 7.78613 11.6987C8.22223 11.6987 8.72019 11.5523 9.13062 11.2726C9.21776 11.2194 9.31735 11.1928 9.40488 11.1928C9.67876 11.1928 9.9647 11.4324 9.9647 11.7786C9.9647 12.5109 8.42103 12.8438 7.64958 12.8438C5.84449 12.8438 4.5 11.499 4.5 9.4623C4.5 7.59828 5.76979 6.09375 7.54999 6.09375C8.95633 6.09375 9.97714 6.99913 10.3506 8.38383C10.4257 8.65012 10.5 8.95635 10.5 9.23596C10.5 9.60834 10.2141 9.92831 9.85265 9.92831Z" fill="white"/>
<path fill-rule="evenodd" clip-rule="evenodd" d="M15.9014 8.27064C15.5985 7.7976 14.9687 7.42969 14.3384 7.42969C13.3048 7.42969 12.6367 8.29651 12.6367 9.51852C12.6367 10.7274 13.3048 11.5946 14.3384 11.5946C14.9687 11.5946 15.5985 11.2267 15.9014 10.7668V8.27064ZM16.5689 12.7649C16.1908 12.7649 15.9013 12.4496 15.9013 12.0685V11.8188C15.4223 12.4627 14.7286 12.8438 13.9475 12.8438C12.3971 12.8438 11.25 11.6086 11.25 9.51936C11.25 7.46995 12.3845 6.18224 13.9475 6.18224C14.7038 6.18224 15.4097 6.55016 15.9013 7.20715V4.53975C15.9013 4.1587 16.1908 3.84375 16.5945 3.84375C16.9471 3.84375 17.25 4.1587 17.25 4.53975V12.0685C17.25 12.4496 16.9471 12.7649 16.5689 12.7649Z" fill="white"/>
<path fill-rule="evenodd" clip-rule="evenodd" d="M24.0013 12.7633C23.5856 12.7633 23.2673 12.4395 23.2673 12.0492V11.8201C22.7823 12.3456 21.9509 12.8438 20.8978 12.8438C19.4567 12.8438 18.75 12.1031 18.75 10.7825V6.79402C18.75 6.41714 19.0687 6.09375 19.5121 6.09375C19.9001 6.09375 20.2327 6.41714 20.2327 6.79402V10.257C20.2327 11.2542 20.7592 11.5637 21.5625 11.5637C22.2969 11.5637 22.9209 11.1594 23.2673 10.7286V6.79402C23.2673 6.41714 23.5856 6.09375 24.029 6.09375C24.417 6.09375 24.75 6.41714 24.75 6.79402V12.0492C24.75 12.4395 24.417 12.7633 24.0013 12.7633Z" fill="white"/>
<path fill-rule="evenodd" clip-rule="evenodd" d="M27.7313 12.8438C27.3278 12.8438 27 12.4859 27 12.0613V4.61256C27 4.20165 27.3278 3.84375 27.7561 3.84375C28.16 3.84375 28.5 4.20165 28.5 4.61256V12.0613C28.5 12.4859 28.16 12.8438 27.7313 12.8438Z" fill="#484545"/>
<path fill-rule="evenodd" clip-rule="evenodd" d="M33.868 5.25781H32.2402V11.4244H33.868C35.6707 11.4244 36.7104 10.0345 36.7104 8.34764C36.7104 6.62034 35.7208 5.25781 33.868 5.25781ZM33.8679 12.8438H31.6515C31.1511 12.8438 30.75 12.3989 30.75 11.8726V4.81493C30.75 4.28907 31.1511 3.84375 31.6515 3.84375H33.8679C36.4719 3.84375 38.25 5.70599 38.25 8.3505C38.25 11.0089 36.4719 12.8438 33.8679 12.8438Z" fill="#484545"/>
</svg>
