<svg width="26" height="26" viewBox="0 0 26 26" fill="none" xmlns="http://www.w3.org/2000/svg">
    <g id="Group 4">
        <path id="Path" d="M11.2852 25.2155H14.7137" stroke="#FFC100" stroke-width="1.14911" stroke-linecap="round" stroke-linejoin="round"/>
        <path id="Path_2" fill-rule="evenodd" clip-rule="evenodd" d="M19.8577 13.2121C19.8704 9.6455 17.147 6.66464 13.5938 6.35611C10.0405 6.04758 6.84405 8.5144 6.24188 12.0298C5.6397 15.5452 7.83291 18.9353 11.2862 19.8269V21.7835H14.7148V19.8269C17.7368 19.0525 19.8521 16.3317 19.8577 13.2121V13.2121Z" stroke="#FFC100" stroke-width="1.14911" stroke-linecap="round" stroke-linejoin="round"/>
        <path id="Path_3" d="M13.0001 2.92718V1.21289" stroke="#FFC100" stroke-width="1.14911" stroke-linecap="round" stroke-linejoin="round"/>
        <path id="Path_4" d="M23.2861 11.4977H25.0004" stroke="#FFC100" stroke-width="1.14911" stroke-linecap="round" stroke-linejoin="round"/>
        <path id="Path_5" d="M1 13.2155H2.71429" stroke="#FFC100" stroke-width="1.14911" stroke-linecap="round" stroke-linejoin="round"/>
        <path id="Path_6" d="M20.2734 19.6284L21.486 20.841" stroke="#FFC100" stroke-width="1.14911" stroke-linecap="round" stroke-linejoin="round"/>
        <path id="Path_7" d="M4.51465 3.87012L5.72722 5.08269" stroke="#FFC100" stroke-width="1.14911" stroke-linecap="round" stroke-linejoin="round"/>
        <path id="Path_8" d="M20.2734 5.08269L21.486 3.87012" stroke="#FFC100" stroke-width="1.14911" stroke-linecap="round" stroke-linejoin="round"/>
        <path id="Path_9" d="M4.51465 20.841L5.72722 19.6284" stroke="#FFC100" stroke-width="1.14911" stroke-linecap="round" stroke-linejoin="round"/>
    </g>
</svg>
