<?xml version="1.0" encoding="UTF-8" standalone="no"?>
<svg
   id="Livello_1"
   data-name="Livello 1"
   viewBox="0 0 183.44184 54.528999"
   version="1.1"
   sodipodi:docname="logo_myAcademicID_grey.svg"
   inkscape:version="1.2.2 (b0a8486541, 2022-12-01)"
   width="183.44185"
   height="54.528999"
   xmlns:inkscape="http://www.inkscape.org/namespaces/inkscape"
   xmlns:sodipodi="http://sodipodi.sourceforge.net/DTD/sodipodi-0.dtd"
   xmlns="http://www.w3.org/2000/svg"
   xmlns:svg="http://www.w3.org/2000/svg"
   xmlns:rdf="http://www.w3.org/1999/02/22-rdf-syntax-ns#"
   xmlns:cc="http://creativecommons.org/ns#"
   xmlns:dc="http://purl.org/dc/elements/1.1/">
  <sodipodi:namedview
     id="namedview4765"
     pagecolor="#ffffff"
     bordercolor="#666666"
     borderopacity="1.0"
     inkscape:pageshadow="2"
     inkscape:pageopacity="0.0"
     inkscape:pagecheckerboard="0"
     showgrid="false"
     inkscape:zoom="4.126058"
     inkscape:cx="95.975384"
     inkscape:cy="60.469339"
     inkscape:window-width="1920"
     inkscape:window-height="1011"
     inkscape:window-x="0"
     inkscape:window-y="0"
     inkscape:window-maximized="1"
     inkscape:current-layer="g12570"
     inkscape:showpageshadow="2"
     inkscape:deskcolor="#d1d1d1" />
  <defs
     id="defs4670">
    <linearGradient
       id="linearGradient1023"
       inkscape:swatch="gradient">
      <stop
         style="stop-color:#1a437e;stop-opacity:1;"
         offset="0"
         id="stop1019" />
      <stop
         style="stop-color:#1a437e;stop-opacity:0;"
         offset="1"
         id="stop1021" />
    </linearGradient>
    <style
       id="style4668">.cls-1,.cls-3{fill:#1a437e;}.cls-1{stroke:#1a437e;}.cls-1,.cls-2{stroke-miterlimit:10;}.cls-2,.cls-4{fill:#ec6917;}.cls-2{stroke:#ec6917;}</style>
  </defs>
  <title
     id="title4672">MyAcademicID</title>
  <metadata
     id="metadata4824">
    <rdf:RDF>
      <cc:Work
         rdf:about="">
        <dc:title>MyAcademicID</dc:title>
      </cc:Work>
    </rdf:RDF>
  </metadata>
  <g
     id="g12570"
     transform="matrix(0.60248172,0,0,0.60248172,-31.07923,-35.631577)">
    <g
       id="g4871"
       transform="matrix(0.43350565,0,0,0.43350565,51.58535,59.141342)"
       style="fill:#a29d94;fill-opacity:1">
      <path
         class="cls-1"
         d="m 173.19,310.52 v 2.64 a 14,14 0 0 0 14,-14 h -2.64 a 11.37,11.37 0 0 1 -11.36,11.36 z"
         transform="translate(-69.5,-194.07)"
         id="path4674"
         style="fill:#a29d94;fill-opacity:1" />
      <path
         class="cls-2"
         d="m 173.2,270 a 29.22,29.22 0 0 1 28.44,22.72 l 2.58,-0.58 a 31.89,31.89 0 0 0 -31,-24.78 c -0.78,0 -1.55,0.06 -2.31,0.12 l 0.2,2.63 C 171.79,270 172.48,270 173.2,270 Z"
         transform="translate(-69.5,-194.07)"
         id="path4676"
         style="fill:#a29d94;fill-opacity:1" />
      <path
         class="cls-1"
         d="M 173.19,328.36 A 29.17,29.17 0 0 1 158,274.27 L 156.62,272 a 31.8,31.8 0 0 0 16.57,59 31.4,31.4 0 0 0 7,-0.8 l -0.57,-2.57 a 29.24,29.24 0 0 1 -6.43,0.73 z"
         transform="translate(-69.5,-194.07)"
         id="path4678"
         style="fill:#a29d94;fill-opacity:1" />
      <path
         class="cls-1"
         d="m 173.2,249.48 a 49.38,49.38 0 0 0 -18.71,3.69 l 1,2.44 A 46.93,46.93 0 0 1 219,288.79 l 2.57,-0.57 A 49.73,49.73 0 0 0 173.2,249.48 Z"
         transform="translate(-69.5,-194.07)"
         id="path4680"
         style="fill:#a29d94;fill-opacity:1" />
      <path
         class="cls-1"
         d="m 221.68,309.84 -2.57,-0.58 a 47,47 0 0 1 -89.74,6.88 l -2.45,1 a 49.62,49.62 0 0 0 94.76,-7.26 z"
         transform="translate(-69.5,-194.07)"
         id="path4682"
         style="fill:#a29d94;fill-opacity:1" />
      <path
         class="cls-1"
         d="m 148.65,259.11 -1.39,-2.24 a 50.06,50.06 0 0 0 -17.9,18.95 l 2.34,1.23 a 47.34,47.34 0 0 1 16.95,-17.94 z"
         transform="translate(-69.5,-194.07)"
         id="path4684"
         style="fill:#a29d94;fill-opacity:1" />
      <path
         class="cls-1"
         d="m 173.2,234.28 a 65,65 0 0 1 63.27,50.62 l 2.57,-0.58 a 67.46,67.46 0 0 0 -91.31,-47.67 l 1,2.44 a 64.46,64.46 0 0 1 24.47,-4.81 z"
         transform="translate(-69.5,-194.07)"
         id="path4686"
         style="fill:#a29d94;fill-opacity:1" />
      <path
         class="cls-1"
         d="m 173.18,364 c -0.67,0 -1.34,0 -2,-0.05 l -0.09,2.63 c 0.7,0 1.4,0.06 2.1,0.06 a 67.39,67.39 0 0 0 14.65,-1.62 l -0.57,-2.58 A 64.7,64.7 0 0 1 173.18,364 Z"
         transform="translate(-69.5,-194.07)"
         id="path4688"
         style="fill:#a29d94;fill-opacity:1" />
      <path
         class="cls-2"
         d="m 108.32,299.15 c 0,-1 0,-2.1 0.08,-3.14 l -2.64,-0.12 c -0.05,1.08 -0.08,2.17 -0.08,3.26 a 67.61,67.61 0 0 0 54.38,66.23 l 0.51,-2.59 a 65,65 0 0 1 -52.25,-63.64 z"
         transform="translate(-69.5,-194.07)"
         id="path4690"
         style="fill:#a29d94;fill-opacity:1" />
      <path
         class="cls-2"
         d="m 139.26,243.89 -1.39,-2.24 a 68,68 0 0 0 -24.28,25.84 l 2.33,1.23 a 65.36,65.36 0 0 1 23.34,-24.83 z"
         transform="translate(-69.5,-194.07)"
         id="path4692"
         style="fill:#a29d94;fill-opacity:1" />
      <path
         class="cls-1"
         d="M 173.18,381.88 A 82.72,82.72 0 1 1 250.27,269.2 l 2.46,-1 a 85.35,85.35 0 1 0 -79.55,116.28 c 2.13,0 4.24,-0.11 6.34,-0.26 l -0.2,-2.63 c -2.03,0.19 -4.07,0.29 -6.14,0.29 z"
         transform="translate(-69.5,-194.07)"
         id="path4694"
         style="fill:#a29d94;fill-opacity:1" />
      <path
         class="cls-2"
         d="m 255.91,299.17 c 0,1.33 0,2.65 -0.1,4 l 2.63,0.12 c 0.07,-1.35 0.11,-2.72 0.11,-4.09 a 85.31,85.31 0 0 0 -3.47,-24.05 l -2.53,0.75 a 82.65,82.65 0 0 1 3.36,23.27 z"
         transform="translate(-69.5,-194.07)"
         id="path4696"
         style="fill:#a29d94;fill-opacity:1" />
      <path
         class="cls-1"
         d="m 186.3,380.83 0.42,2.6 a 84.39,84.39 0 0 0 18.7,-5.25 l -1,-2.44 a 82.18,82.18 0 0 1 -18.12,5.09 z"
         transform="translate(-69.5,-194.07)"
         id="path4698"
         style="fill:#a29d94;fill-opacity:1" />
      <path
         class="cls-2"
         d="m 173.21,198.61 a 100.54,100.54 0 0 1 85.48,47.71 l 2.24,-1.39 a 103.18,103.18 0 0 0 -87.72,-49 c -2.59,0 -5.15,0.13 -7.69,0.31 l 0.2,2.63 c 2.48,-0.14 4.97,-0.26 7.49,-0.26 z"
         transform="translate(-69.5,-194.07)"
         id="path4700"
         style="fill:#a29d94;fill-opacity:1" />
      <path
         class="cls-1"
         d="m 157.23,199.89 -0.42,-2.61 a 102.18,102.18 0 0 0 -22.6,6.36 l 1,2.44 a 99.8,99.8 0 0 1 22.02,-6.19 z"
         transform="translate(-69.5,-194.07)"
         id="path4702"
         style="fill:#a29d94;fill-opacity:1" />
      <path
         class="cls-2"
         d="m 173.18,399.71 c -1.06,0 -2.11,0 -3.17,-0.08 l -0.08,2.64 c 1.08,0 2.16,0.08 3.25,0.08 a 103.45,103.45 0 0 0 22.33,-2.45 l -0.57,-2.58 a 100.07,100.07 0 0 1 -21.76,2.39 z"
         transform="translate(-69.5,-194.07)"
         id="path4704"
         style="fill:#a29d94;fill-opacity:1" />
      <path
         class="cls-1"
         d="m 271.28,277.13 0.92,-0.21 1.66,-0.37 a 102.11,102.11 0 0 0 -8.64,-24 l -2.35,1.18 a 99.87,99.87 0 0 1 8.41,23.4 z"
         transform="translate(-69.5,-194.07)"
         id="path4706"
         style="fill:#a29d94;fill-opacity:1" />
      <path
         class="cls-1"
         d="m 79.5,335.6 -2.45,1 a 103.52,103.52 0 0 0 76,63.81 l 0.52,-2.58 A 100.91,100.91 0 0 1 79.5,335.6 Z"
         transform="translate(-69.5,-194.07)"
         id="path4708"
         style="fill:#a29d94;fill-opacity:1" />
      <path
         class="cls-1"
         d="M 78.94,265.83 A 101.32,101.32 0 0 1 108.41,222 l -1.73,-2 a 104,104 0 0 0 -30.24,45 l 1.7,0.57 z"
         transform="translate(-69.5,-194.07)"
         id="path4710"
         style="fill:#a29d94;fill-opacity:1" />
      <path
         class="cls-2"
         d="m 72.64,299.15 c 0,-1.61 0,-3.2 0.12,-4.79 h -0.75 l -1.88,-0.08 C 70.05,295.9 70,297.54 70,299.19 a 102.88,102.88 0 0 0 4.2,29.1 l 2.53,-0.75 a 100.21,100.21 0 0 1 -4.09,-28.39 z"
         transform="translate(-69.5,-194.07)"
         id="path4712"
         style="fill:#a29d94;fill-opacity:1" />
      <path
         class="cls-3"
         d="m 258.86,367.72 h 0.26 l 18.4,-49 h 13.55 v 63.64 h -10.62 v -45.67 h -0.26 l -17.53,45.76 h -7.3 l -17.83,-46.64 -0.26,0.09 v 46.55 h -10.62 v -63.68 h 13.94 z"
         transform="translate(-69.5,-194.07)"
         id="path4714"
         style="fill:#a29d94;fill-opacity:1" />
      <path
         class="cls-3"
         d="m 314.61,363.44 1.05,4.72 h 0.26 l 10.36,-33 h 11.63 l -19.58,54.46 A 24.42,24.42 0 0 1 313,398 q -3.41,3.51 -9.66,3.5 a 17.09,17.09 0 0 1 -2.82,-0.26 c -1,-0.18 -2,-0.38 -2.91,-0.61 l 1.18,-8.22 1.62,0.13 c 0.7,0.06 1.23,0.09 1.57,0.09 a 5.86,5.86 0 0 0 4.62,-2 16.87,16.87 0 0 0 2.82,-4.54 L 311.16,381.8 294,335.12 h 11.58 z"
         transform="translate(-69.5,-194.07)"
         id="path4716"
         style="fill:#a29d94;fill-opacity:1" />
      <path
         class="cls-3"
         d="m 374,367.55 h -22.51 l -4.9,14.86 h -11 l 22.2,-63.64 h 10.1 l 21.94,63.64 h -11 z m -19.63,-8.87 h 16.74 L 363,333.59 h -0.26 z"
         transform="translate(-69.5,-194.07)"
         id="path4718"
         style="fill:#a29d94;fill-opacity:1" />
      <path
         class="cls-3"
         d="m 411.44,374.85 a 8.87,8.87 0 0 0 6.14,-2.27 7.46,7.46 0 0 0 2.51,-5.77 h 9.62 l 0.08,0.26 a 14.27,14.27 0 0 1 -5.26,11.45 19.09,19.09 0 0 1 -13.09,4.81 q -10.23,0 -15.78,-6.76 -5.55,-6.76 -5.55,-17 V 358 q 0,-10.23 5.55,-17 5.55,-6.77 15.73,-6.78 8.26,0 13.42,5 a 16.18,16.18 0 0 1 5,12.61 l -0.08,0.27 h -9.62 a 9.58,9.58 0 0 0 -2.4,-6.6 8,8 0 0 0 -6.3,-2.71 q -5.68,0 -8.17,4.39 A 21.75,21.75 0 0 0 400.73,358 v 1.53 a 21.9,21.9 0 0 0 2.47,10.95 q 2.46,4.37 8.24,4.37 z"
         transform="translate(-69.5,-194.07)"
         id="path4720"
         style="fill:#a29d94;fill-opacity:1" />
      <path
         class="cls-3"
         d="m 462.73,382.41 c -0.38,-1.19 -0.69,-2.36 -0.94,-3.5 a 24.81,24.81 0 0 1 -0.5,-3.41 18.2,18.2 0 0 1 -5.73,5.58 14.72,14.72 0 0 1 -8,2.25 q -7.38,0 -11.34,-3.8 -3.96,-3.8 -4,-10.45 a 12.32,12.32 0 0 1 5.42,-10.69 q 5.42,-3.83 15.25,-3.82 h 8.26 v -4.15 A 7.74,7.74 0 0 0 459,344.6 q -2.16,-2.1 -6.27,-2.1 a 8.92,8.92 0 0 0 -5.77,1.73 5.5,5.5 0 0 0 -2.15,4.48 h -10.22 l -0.05,-0.26 q -0.3,-5.6 5,-9.92 5.3,-4.32 13.83,-4.33 8.26,0 13.33,4.2 5.07,4.2 5.07,12.06 v 21 a 37.6,37.6 0 0 0 0.4,5.61 29.73,29.73 0 0 0 1.26,5.27 z m -13,-7.61 a 13.28,13.28 0 0 0 7.19,-2 10.13,10.13 0 0 0 4.26,-4.59 v -7 h -8.43 a 10.66,10.66 0 0 0 -7.26,2.3 7,7 0 0 0 -2.62,5.39 5.51,5.51 0 0 0 1.77,4.31 7.38,7.38 0 0 0 5.11,1.59 z"
         transform="translate(-69.5,-194.07)"
         id="path4722"
         style="fill:#a29d94;fill-opacity:1" />
      <path
         class="cls-3"
         d="m 476.48,359.42 q 0,-11.32 4.85,-18.25 a 15.7,15.7 0 0 1 13.67,-6.93 14.9,14.9 0 0 1 6.89,1.56 15.51,15.51 0 0 1 5.26,4.43 v -26 h 10.62 v 68.18 h -8.61 l -1.26,-6 a 15.83,15.83 0 0 1 -5.51,5.14 15.34,15.34 0 0 1 -7.48,1.77 q -8.69,0 -13.55,-6.34 -4.86,-6.34 -4.85,-16.65 z m 10.62,0.92 q 0,6.56 2.52,10.44 c 1.67,2.6 4.33,3.89 8,3.89 a 10.69,10.69 0 0 0 5.71,-1.44 10.93,10.93 0 0 0 3.82,-4.11 v -20.63 a 11.11,11.11 0 0 0 -3.84,-4.08 10.39,10.39 0 0 0 -5.6,-1.47 8.56,8.56 0 0 0 -8,4.57 q -2.58,4.56 -2.58,11.91 z"
         transform="translate(-69.5,-194.07)"
         id="path4724"
         style="fill:#a29d94;fill-opacity:1" />
      <path
         class="cls-4"
         d="m 544.74,383.33 q -10.37,0 -16.2,-6.54 -5.83,-6.54 -5.83,-16.93 v -1.75 q 0,-10.41 5.83,-17.16 a 18.86,18.86 0 0 1 15.06,-6.71 q 9.52,0 14.42,5.88 4.9,5.88 4.9,15.72 v 5.72 h -29.24 l -0.09,0.22 a 15.53,15.53 0 0 0 3.06,9.44 q 2.88,3.63 8.7,3.63 a 23.88,23.88 0 0 0 7.49,-1.05 21.27,21.27 0 0 0 5.88,-3 l 3.46,7 a 22.49,22.49 0 0 1 -7.17,4 30,30 0 0 1 -10.27,1.53 z m -1.14,-40.56 a 8.18,8.18 0 0 0 -6.64,3 14.89,14.89 0 0 0 -3.11,7.8 l 0.09,0.22 h 18.49 V 353 a 12,12 0 0 0 -2.12,-7.36 q -2.12,-2.87 -6.71,-2.87 z"
         transform="translate(-69.5,-194.07)"
         id="path4726"
         style="fill:#a29d94;fill-opacity:1" />
      <path
         class="cls-3"
         d="m 576.76,335.12 0.57,6.16 a 16,16 0 0 1 5.81,-5.2 17.2,17.2 0 0 1 8.09,-1.84 14.57,14.57 0 0 1 7.95,2.1 12.72,12.72 0 0 1 5,6.3 16.58,16.58 0 0 1 5.77,-6.17 15.62,15.62 0 0 1 8.39,-2.23 13.9,13.9 0 0 1 11.26,5 q 4.13,5 4.13,15 v 28.19 h -10.64 v -28.26 q 0,-6.19 -2.08,-8.72 -2.08,-2.53 -6.23,-2.51 a 9.1,9.1 0 0 0 -5.77,1.84 10.15,10.15 0 0 0 -3.4,4.94 c 0,0.43 0,0.81 0,1.13 0,0.32 0,0.63 0,0.92 v 30.64 h -10.54 v -28.24 q 0,-6 -2.12,-8.61 a 7.56,7.56 0 0 0 -6.23,-2.62 11.18,11.18 0 0 0 -5.48,1.25 9.12,9.12 0 0 0 -3.56,3.52 v 34.7 h -10.63 v -47.29 z"
         transform="translate(-69.5,-194.07)"
         id="path4728"
         style="fill:#a29d94;fill-opacity:1" />
      <rect
         class="cls-3"
         x="571.62"
         y="144.2"
         width="10.62"
         height="44.139999"
         id="rect4730"
         style="fill:#a29d94;fill-opacity:1" />
      <rect
         class="cls-3"
         x="571.62"
         y="124.71"
         width="10.62"
         height="8.6899996"
         id="rect4732"
         style="fill:#a29d94;fill-opacity:1" />
      <path
         class="cls-3"
         d="m 678.43,374.85 a 8.83,8.83 0 0 0 6.14,-2.27 7.44,7.44 0 0 0 2.52,-5.77 h 9.61 l 0.09,0.26 a 14.25,14.25 0 0 1 -5.27,11.45 19.06,19.06 0 0 1 -13.09,4.81 q -10.23,0 -15.78,-6.76 -5.55,-6.76 -5.55,-17 V 358 q 0,-10.23 5.55,-17 5.55,-6.77 15.74,-6.78 8.26,0 13.42,5 a 16.18,16.18 0 0 1 5,12.61 l -0.09,0.27 h -9.61 a 9.54,9.54 0 0 0 -2.41,-6.6 8,8 0 0 0 -6.29,-2.71 q -5.68,0 -8.17,4.39 a 21.65,21.65 0 0 0 -2.5,10.86 v 1.53 a 22,22 0 0 0 2.47,10.95 q 2.46,4.33 8.22,4.33 z"
         transform="translate(-69.5,-194.07)"
         id="path4734"
         style="fill:#a29d94;fill-opacity:1" />
      <path
         class="cls-4"
         d="M 713.82,382.41 H 703.2 v -63.64 h 10.62 z"
         transform="translate(-69.5,-194.07)"
         id="path4736"
         style="fill:#a29d94;fill-opacity:1" />
      <path
         class="cls-4"
         d="m 723.59,382.41 v -63.64 h 21 q 12.11,0 19.69,7.56 7.58,7.56 7.58,19.45 v 9.66 q 0,11.94 -7.58,19.45 -7.58,7.51 -19.69,7.52 z m 10.62,-55.12 v 46.64 h 10.41 q 7.65,0 12.15,-5.18 4.5,-5.18 4.5,-13.31 v -9.74 c 0,-5.37 -1.5,-9.77 -4.5,-13.23 -3,-3.46 -7,-5.18 -12.15,-5.18 z"
         transform="translate(-69.5,-194.07)"
         id="path4738"
         style="fill:#a29d94;fill-opacity:1" />
      <circle
         class="cls-2"
         cx="101.48"
         cy="74.589996"
         r="2.8599999"
         id="circle4740"
         style="fill:#a29d94;fill-opacity:1" />
      <circle
         class="cls-1"
         cx="61.040001"
         cy="82.599998"
         r="2.8599999"
         id="circle4742"
         style="fill:#a29d94;fill-opacity:1" />
      <circle
         class="cls-1"
         cx="37.540001"
         cy="26.68"
         r="2.8599999"
         id="circle4744"
         style="fill:#a29d94;fill-opacity:1" />
      <circle
         class="cls-1"
         cx="8.5100002"
         cy="70.980003"
         r="2.8599999"
         id="circle4746"
         style="fill:#a29d94;fill-opacity:1" />
      <circle
         class="cls-1"
         cx="77.959999"
         cy="63.98"
         r="2.8599999"
         id="circle4748"
         style="fill:#a29d94;fill-opacity:1" />
      <circle
         class="cls-2"
         cx="37.529999"
         cy="102.18"
         r="2.8599999"
         id="circle4750"
         style="fill:#a29d94;fill-opacity:1" />
      <circle
         class="cls-2"
         cx="90.980003"
         cy="169.60001"
         r="2.8599999"
         id="circle4752"
         style="fill:#a29d94;fill-opacity:1" />
      <circle
         class="cls-1"
         cx="83.599998"
         cy="204.89"
         r="2.8599999"
         id="circle4754"
         style="fill:#a29d94;fill-opacity:1" />
      <circle
         class="cls-1"
         cx="8.7200003"
         cy="142.23"
         r="2.8599999"
         id="circle4756"
         style="fill:#a29d94;fill-opacity:1" />
      <circle
         class="cls-2"
         cx="96.110001"
         cy="3.3599999"
         r="2.8599999"
         id="circle4758"
         style="fill:#a29d94;fill-opacity:1" />
      <circle
         class="cls-2"
         cx="190.32001"
         cy="51.099998"
         r="2.8599999"
         id="circle4760"
         style="fill:#a29d94;fill-opacity:1" />
      <circle
         class="cls-2"
         cx="133.53999"
         cy="98.220001"
         r="2.8599999"
         id="circle4762"
         style="fill:#a29d94;fill-opacity:1" />
    </g>
  </g>
</svg>
