<svg width="157" height="150" viewBox="0 0 157 150" fill="none" xmlns="http://www.w3.org/2000/svg">
<g clip-path="url(#clip0_3185_65260)">
<path d="M131.527 35.5526H130.706V13.0334C130.706 9.57673 129.332 6.26163 126.888 3.81739C124.444 1.37316 121.129 1.70014e-09 117.672 1.70014e-09H69.9613C68.2498 -2.76424e-05 66.555 0.337064 64.9737 0.992028C63.3924 1.64699 61.9556 2.607 60.7453 3.81725C59.535 5.02749 58.5749 6.46427 57.9199 8.04554C57.2649 9.62681 56.9278 11.3216 56.9277 13.0332V136.575C56.9277 140.032 58.3009 143.347 60.7451 145.791C63.1894 148.235 66.5045 149.608 69.9611 149.608H117.672C121.128 149.608 124.443 148.235 126.888 145.791C129.332 143.347 130.705 140.032 130.705 136.575V51.5821H131.526L131.527 35.5526Z" fill="#3F3D56"/>
<path d="M128.032 12.1608V137.448C128.031 140.069 126.99 142.582 125.137 144.436C123.284 146.289 120.771 147.331 118.15 147.332H69.4603C66.8385 147.332 64.3239 146.291 62.4695 144.437C60.6152 142.584 59.573 140.07 59.5723 137.448V12.1608C59.573 9.53902 60.6152 7.02495 62.4694 5.1715C64.3236 3.31805 66.8381 2.27701 69.4599 2.27734H75.3662C75.0762 2.99053 74.9658 3.76404 75.0448 4.52988C75.1237 5.29572 75.3896 6.03044 75.819 6.66947C76.2484 7.3085 76.8282 7.83227 77.5074 8.19474C78.1866 8.55721 78.9445 8.74729 79.7144 8.74826H107.473C108.243 8.74729 109.001 8.55721 109.68 8.19474C110.359 7.83227 110.939 7.3085 111.369 6.66947C111.798 6.03044 112.064 5.29572 112.143 4.52988C112.222 3.76404 112.111 2.99053 111.821 2.27734H118.148C120.769 2.27779 123.282 3.31896 125.136 5.17195C126.989 7.02494 128.031 9.53808 128.032 12.1589V12.1608Z" fill="white"/>
<path d="M93.7942 62.4556C105.021 62.4556 114.122 53.3547 114.122 42.1282C114.122 30.9017 105.021 21.8008 93.7942 21.8008C82.5677 21.8008 73.4668 30.9017 73.4668 42.1282C73.4668 53.3547 82.5677 62.4556 93.7942 62.4556Z" fill="#D1061A"/>
<path d="M115.962 84.3269H72.6957C72.4833 84.3267 72.2796 84.2422 72.1294 84.092C71.9792 83.9418 71.8948 83.7382 71.8945 83.5257V72.7934C71.8948 72.581 71.9793 72.3773 72.1295 72.2272C72.2797 72.077 72.4833 71.9925 72.6957 71.9922H115.962C116.175 71.9925 116.378 72.077 116.528 72.2272C116.679 72.3773 116.763 72.581 116.763 72.7934V83.526C116.763 83.7384 116.679 83.942 116.528 84.0922C116.378 84.2424 116.175 84.3269 115.962 84.3271V84.3269ZM72.6957 72.3126C72.5682 72.3127 72.446 72.3634 72.3559 72.4535C72.2657 72.5437 72.215 72.6659 72.2149 72.7934V83.5259C72.215 83.6534 72.2657 83.7757 72.3559 83.8658C72.446 83.9559 72.5682 84.0066 72.6957 84.0067H115.962C116.09 84.0066 116.212 83.9559 116.302 83.8658C116.392 83.7757 116.443 83.6534 116.443 83.5259V72.7934C116.443 72.6659 116.392 72.5437 116.302 72.4535C116.212 72.3634 116.09 72.3127 115.962 72.3126H72.6957Z" fill="#E6E6E6"/>
<path d="M86.0765 75.8574C85.9278 75.8574 85.7851 75.9165 85.6799 76.0217C85.5747 76.1269 85.5156 76.2696 85.5156 76.4183C85.5156 76.5671 85.5747 76.7097 85.6799 76.8149C85.7851 76.9201 85.9278 76.9792 86.0765 76.9792H112.517C112.666 76.9849 112.81 76.9313 112.92 76.8302C113.029 76.7291 113.093 76.5888 113.099 76.4401C113.105 76.2914 113.051 76.1466 112.95 76.0374C112.849 75.9283 112.709 75.8637 112.56 75.858C112.552 75.8577 112.543 75.8576 112.535 75.8576L86.0765 75.8574Z" fill="#E6E6E6"/>
<path d="M86.0765 79.2227C85.9278 79.2227 85.7851 79.2817 85.6799 79.3869C85.5747 79.4921 85.5156 79.6348 85.5156 79.7835C85.5156 79.9323 85.5747 80.075 85.6799 80.1802C85.7851 80.2853 85.9278 80.3444 86.0765 80.3444H112.517C112.666 80.3501 112.81 80.2965 112.92 80.1954C113.029 80.0943 113.093 79.954 113.099 79.8053C113.105 79.6567 113.051 79.5118 112.95 79.4026C112.849 79.2935 112.709 79.229 112.56 79.2233C112.552 79.223 112.543 79.2228 112.535 79.2229L86.0765 79.2227Z" fill="#E6E6E6"/>
<path d="M115.962 102.216H72.6957C72.4833 102.215 72.2796 102.131 72.1294 101.981C71.9792 101.83 71.8948 101.627 71.8945 101.414V90.682C71.8948 90.4696 71.9793 90.266 72.1295 90.1158C72.2797 89.9656 72.4833 89.8811 72.6957 89.8809H115.962C116.175 89.8811 116.378 89.9656 116.528 90.1158C116.679 90.266 116.763 90.4696 116.763 90.682V101.415C116.763 101.627 116.679 101.831 116.528 101.981C116.378 102.131 116.175 102.215 115.962 102.216ZM72.6957 90.2012C72.5682 90.2014 72.446 90.252 72.3559 90.3422C72.2657 90.4323 72.215 90.5546 72.2149 90.682V101.415C72.215 101.542 72.2657 101.664 72.3559 101.754C72.446 101.845 72.5682 101.895 72.6957 101.895H115.962C116.09 101.895 116.212 101.845 116.302 101.754C116.392 101.664 116.443 101.542 116.443 101.415V90.682C116.443 90.5546 116.392 90.4323 116.302 90.3422C116.212 90.252 116.09 90.2014 115.962 90.2012H72.6957Z" fill="#E6E6E6"/>
<path d="M86.0765 93.8047C85.9278 93.8047 85.7851 93.8638 85.6799 93.969C85.5747 94.0742 85.5156 94.2168 85.5156 94.3656C85.5156 94.5143 85.5747 94.657 85.6799 94.7622C85.7851 94.8674 85.9278 94.9265 86.0765 94.9265H112.517C112.664 94.9256 112.804 94.8674 112.908 94.7643C113.013 94.6611 113.072 94.5213 113.075 94.3746C113.077 94.228 113.022 94.0863 112.921 93.9798C112.82 93.8733 112.682 93.8105 112.535 93.8049H86.0765V93.8047Z" fill="#E6E6E6"/>
<path d="M86.0765 97.1699C85.9278 97.1699 85.7851 97.229 85.6799 97.3342C85.5747 97.4394 85.5156 97.5821 85.5156 97.7308C85.5156 97.8796 85.5747 98.0222 85.6799 98.1274C85.7851 98.2326 85.9278 98.2917 86.0765 98.2917H112.517C112.664 98.2909 112.804 98.2327 112.908 98.1295C113.013 98.0264 113.072 97.8865 113.075 97.7399C113.077 97.5933 113.022 97.4515 112.921 97.345C112.82 97.2385 112.682 97.1758 112.535 97.1701H86.0765V97.1699Z" fill="#E6E6E6"/>
<path d="M115.962 120.163H72.6957C72.4833 120.163 72.2796 120.078 72.1294 119.928C71.9792 119.778 71.8948 119.574 71.8945 119.362V108.629C71.8948 108.417 71.9793 108.213 72.1295 108.063C72.2797 107.913 72.4833 107.828 72.6957 107.828H115.962C116.175 107.828 116.378 107.913 116.528 108.063C116.679 108.213 116.763 108.417 116.763 108.629V119.362C116.763 119.574 116.679 119.778 116.528 119.928C116.378 120.078 116.175 120.163 115.962 120.163V120.163ZM72.6957 108.149C72.5682 108.149 72.446 108.199 72.3559 108.289C72.2657 108.38 72.215 108.502 72.2149 108.629V119.362C72.215 119.489 72.2657 119.612 72.3559 119.702C72.446 119.792 72.5682 119.843 72.6957 119.843H115.962C116.09 119.843 116.212 119.792 116.302 119.702C116.392 119.612 116.443 119.489 116.443 119.362V108.629C116.443 108.502 116.392 108.38 116.302 108.289C116.212 108.199 116.09 108.149 115.962 108.149H72.6957Z" fill="#E6E6E6"/>
<path d="M86.0765 111.752C85.9278 111.752 85.7851 111.811 85.6799 111.916C85.5747 112.021 85.5156 112.164 85.5156 112.313C85.5156 112.462 85.5747 112.604 85.6799 112.709C85.7851 112.815 85.9278 112.874 86.0765 112.874H112.517C112.591 112.877 112.664 112.865 112.733 112.839C112.802 112.814 112.866 112.775 112.92 112.725C112.974 112.675 113.017 112.614 113.048 112.548C113.079 112.481 113.096 112.408 113.099 112.335C113.102 112.261 113.09 112.188 113.065 112.118C113.039 112.049 113 111.986 112.95 111.932C112.9 111.878 112.84 111.834 112.773 111.803C112.706 111.773 112.634 111.755 112.56 111.753C112.552 111.752 112.543 111.752 112.535 111.752L86.0765 111.752Z" fill="#E6E6E6"/>
<path d="M86.0765 115.117C85.9278 115.117 85.7851 115.176 85.6799 115.281C85.5747 115.387 85.5156 115.529 85.5156 115.678C85.5156 115.827 85.5747 115.97 85.6799 116.075C85.7851 116.18 85.9278 116.239 86.0765 116.239H112.517C112.591 116.242 112.664 116.23 112.733 116.205C112.802 116.179 112.866 116.14 112.92 116.09C112.974 116.04 113.017 115.98 113.048 115.913C113.079 115.846 113.096 115.773 113.099 115.7C113.102 115.626 113.09 115.553 113.065 115.484C113.039 115.415 113 115.351 112.95 115.297C112.9 115.243 112.84 115.199 112.773 115.169C112.706 115.138 112.634 115.121 112.56 115.118C112.552 115.117 112.543 115.117 112.535 115.117H86.0765L86.0765 115.117Z" fill="#E6E6E6"/>
<path d="M155.874 150H0.407956C0.182505 150 0 149.902 0 149.781C0 149.659 0.182716 149.561 0.407956 149.561H155.874C156.1 149.561 156.282 149.659 156.282 149.781C156.282 149.902 156.1 150 155.874 150Z" fill="#E6E6E6"/>
<path d="M149.289 141.418C148.625 141.652 147.912 141.71 147.219 141.588C146.525 141.466 145.875 141.167 145.331 140.721C143.944 139.557 143.509 137.64 143.156 135.864L142.109 130.613L144.3 132.122C145.875 133.206 147.485 134.326 148.576 135.897C149.667 137.468 150.143 139.612 149.267 141.312" fill="#E6E6E6"/>
<path d="M148.951 148.14C149.227 146.132 149.51 144.097 149.317 142.067C149.145 140.264 148.595 138.503 147.475 137.06C146.881 136.295 146.158 135.639 145.338 135.123C145.124 134.988 144.928 135.327 145.14 135.461C146.559 136.357 147.655 137.681 148.273 139.241C148.955 140.976 149.064 142.867 148.947 144.709C148.875 145.824 148.725 146.931 148.573 148.036C148.561 148.086 148.569 148.139 148.594 148.184C148.619 148.228 148.661 148.262 148.71 148.277C148.76 148.29 148.813 148.284 148.858 148.258C148.903 148.232 148.937 148.19 148.951 148.14H148.951Z" fill="#F2F2F2"/>
<path d="M146.967 144.917C146.682 145.35 146.29 145.703 145.83 145.94C145.369 146.178 144.855 146.293 144.337 146.275C143.006 146.211 141.897 145.282 140.898 144.401L137.943 141.792L139.899 141.698C141.305 141.631 142.748 141.568 144.088 142.002C145.428 142.436 146.662 143.479 146.907 144.865" fill="#E6E6E6"/>
<path d="M149.73 149.295C148.403 146.947 146.863 144.337 144.112 143.502C143.347 143.271 142.545 143.188 141.75 143.258C141.499 143.28 141.561 143.667 141.813 143.645C143.147 143.534 144.478 143.887 145.583 144.643C146.647 145.366 147.474 146.372 148.175 147.44C148.604 148.092 148.988 148.774 149.373 149.455C149.495 149.672 149.854 149.515 149.73 149.295Z" fill="#F2F2F2"/>
<path d="M78.0936 81.4588C79.9522 81.4588 81.4588 79.9522 81.4588 78.0936C81.4588 76.2351 79.9522 74.7285 78.0936 74.7285C76.2351 74.7285 74.7285 76.2351 74.7285 78.0936C74.7285 79.9522 76.2351 81.4588 78.0936 81.4588Z" fill="#D1061A"/>
<path d="M76.4822 77.4648C76.4435 77.4648 76.4121 77.716 76.4121 78.0256C76.4121 78.3353 76.4435 78.5866 76.4822 78.5866H79.7911C79.8299 78.5917 79.8619 78.3448 79.8625 78.0351C79.884 77.8423 79.8603 77.6471 79.7934 77.4651H76.4822V77.4648Z" fill="#E6E6E6"/>
<path d="M78.0936 99.4139C79.9522 99.4139 81.4588 97.9072 81.4588 96.0487C81.4588 94.1902 79.9522 92.6836 78.0936 92.6836C76.2351 92.6836 74.7285 94.1902 74.7285 96.0487C74.7285 97.9072 76.2351 99.4139 78.0936 99.4139Z" fill="#D1061A"/>
<path d="M76.4822 95.4199C76.4435 95.4199 76.4121 95.6711 76.4121 95.9807C76.4121 96.2904 76.4435 96.5417 76.4822 96.5417H79.7911C79.8299 96.5467 79.8619 96.2998 79.8625 95.9902C79.884 95.7974 79.8603 95.6022 79.7934 95.4201L76.4822 95.4199Z" fill="#E6E6E6"/>
<path d="M78.0936 117.361C79.9522 117.361 81.4588 115.855 81.4588 113.996C81.4588 112.137 79.9522 110.631 78.0936 110.631C76.2351 110.631 74.7285 112.137 74.7285 113.996C74.7285 115.855 76.2351 117.361 78.0936 117.361Z" fill="#D1061A"/>
<path d="M76.4822 113.367C76.4435 113.367 76.4121 113.618 76.4121 113.928C76.4121 114.238 76.4435 114.489 76.4822 114.489H79.7911C79.8299 114.494 79.8619 114.247 79.8625 113.937C79.884 113.745 79.8603 113.549 79.7934 113.367L76.4822 113.367Z" fill="#E6E6E6"/>
<path d="M89.4017 36.5455L88.2109 37.7363L98.1838 47.7092L99.3746 46.5184L89.4017 36.5455Z" fill="white"/>
<path d="M99.3763 37.7377L98.1855 36.5469L88.2126 46.5198L89.4034 47.7106L99.3763 37.7377Z" fill="white"/>
<path d="M18.9998 96.0195C19.2915 95.9162 19.557 95.7503 19.7777 95.5333C19.9983 95.3163 20.1687 95.0536 20.2769 94.7636C20.385 94.4737 20.4282 94.1635 20.4035 93.8551C20.3788 93.5466 20.2868 93.2473 20.1339 92.9782L25.0945 87.3233L21.2222 86.7891L17.1052 92.241C16.6702 92.5278 16.3556 92.9642 16.2208 93.4675C16.0861 93.9708 16.1407 94.506 16.3742 94.9717C16.6077 95.4375 17.004 95.8014 17.4879 95.9945C17.9718 96.1876 18.5098 96.1965 18.9998 96.0195Z" fill="#9F616A"/>
<path d="M24.9825 146.136L21.5229 146.136L19.877 132.791L24.9832 132.791L24.9825 146.136Z" fill="#9F616A"/>
<path d="M25.8646 149.489L14.709 149.489V149.348C14.7091 148.196 15.1666 147.092 15.9808 146.278C16.7951 145.463 17.8995 145.006 19.0511 145.006H19.0513L25.8648 145.006L25.8646 149.489Z" fill="#2F2E41"/>
<path d="M43.093 143.241L39.7889 144.266L34.2598 132.01L39.1363 130.496L43.093 143.241Z" fill="#9F616A"/>
<path d="M44.9301 146.182L34.2761 149.49L34.2343 149.355C33.8929 148.255 34.0023 147.065 34.5385 146.046C35.0747 145.027 35.9937 144.262 37.0935 143.921L37.0937 143.921L43.6008 141.9L44.9301 146.182Z" fill="#2F2E41"/>
<path d="M22.3329 84.6113L17.209 90.4796L21.2204 90.8406L22.3329 84.6113Z" fill="#E6E6E6"/>
<path d="M20.331 92.1748C20.331 92.1748 18.5512 93.0646 18.3287 97.0693C18.1062 101.074 18.9962 111.531 18.9962 111.531C18.9962 111.531 18.1064 116.203 18.9962 120.43C19.886 124.657 18.1064 140.007 19.2187 140.007C20.331 140.007 26.1152 140.674 26.3378 140.007C26.5603 139.339 26.7828 129.328 26.7828 129.328C26.7828 129.328 28.5626 124.211 26.7828 121.097C26.7828 121.097 32.997 131.948 37.0164 140.23C37.8961 142.042 44.5805 140.007 43.4682 138.005C42.3559 136.003 39.6863 126.881 39.6863 126.881C39.6863 126.881 37.684 120.207 34.1245 117.315L35.9043 103.077C35.9043 103.077 39.6865 93.5103 37.4621 92.1754C35.2377 90.8406 20.331 92.1748 20.331 92.1748Z" fill="#2F2E41"/>
<path d="M27.005 55.9122C30.1995 55.9122 32.7892 53.3226 32.7892 50.128C32.7892 46.9334 30.1995 44.3438 27.005 44.3438C23.8104 44.3438 21.2207 46.9334 21.2207 50.128C21.2207 53.3226 23.8104 55.9122 27.005 55.9122Z" fill="#A0616A"/>
<path d="M33.456 56.3574L26.2652 60.5844C26.2652 60.5844 23.5118 62.1349 22.4833 64.8113C21.387 67.6636 22.0242 71.6796 22.4833 72.5979C23.3731 74.3777 22.1101 78.8271 22.1101 78.8271L20.9977 89.0608C20.9977 89.0608 16.9933 92.8427 20.1079 93.2877C23.2226 93.7327 28.7843 93.0652 32.1214 93.2877C35.4586 93.5102 39.2405 93.9553 38.1282 91.73C37.0159 89.5048 35.6811 87.9479 37.0159 83.4993C38.0604 80.0175 38.0152 66.9993 37.9461 61.5015C37.9366 60.7465 37.7341 60.0065 37.3579 59.3519C36.9817 58.6973 36.4442 58.1498 35.7966 57.7615L33.456 56.3574Z" fill="#E5E5E5"/>
<path opacity="0.1" d="M30.2316 63.3652L30.8989 76.9361L24.4309 90.0343L23.334 89.6169L30.0082 77.3808L30.2316 63.3652Z" fill="black"/>
<path opacity="0.1" d="M37.573 79.8273V78.2695L30.0098 90.7285L37.573 79.8273Z" fill="black"/>
<path d="M22.8996 44.7698L21.9441 44.3875C21.9441 44.3875 23.9439 42.1863 26.7253 42.3776L25.9428 41.5162C25.9428 41.5162 27.8553 40.7506 29.594 42.7603C30.508 43.8168 31.5654 45.0588 32.2253 46.4576H33.2494L32.8221 47.3988L34.318 48.3399L32.7825 48.1715C32.928 48.984 32.8782 49.8195 32.6373 50.609L32.6794 51.3529C32.6794 51.3529 30.8987 48.5976 30.8987 48.2153V49.1725C30.8987 49.1725 29.9424 48.3111 29.9424 47.7368L29.4208 48.4069L29.16 47.3544L25.9435 48.4069L26.4647 47.5451L24.4649 47.8322L25.2473 46.7797C25.2473 46.7797 22.9871 48.0238 22.9002 49.0767C22.8132 50.1297 21.6833 51.4693 21.6833 51.4693L21.1616 50.5121C21.1616 50.5121 20.3794 46.2054 22.8996 44.7698Z" fill="#2F2E41"/>
<path d="M26.6424 96.6477C26.9112 96.4943 27.143 96.2839 27.3217 96.0312C27.5003 95.7785 27.6214 95.4897 27.6763 95.1852C27.7312 94.8806 27.7187 94.5677 27.6397 94.2685C27.5606 93.9693 27.4169 93.6911 27.2187 93.4535L31.0968 87.0078L27.1911 87.1694L24.1072 93.2656C23.7301 93.625 23.4979 94.1103 23.4546 94.6295C23.4114 95.1487 23.5601 95.6658 23.8726 96.0827C24.1851 96.4996 24.6396 96.7874 25.1501 96.8915C25.6606 96.9957 26.1916 96.9089 26.6424 96.6477Z" fill="#9F616A"/>
<path d="M35.4588 59.2497L37.1273 58.916C37.1273 58.916 42.1328 62.5868 40.5755 69.9284C39.0182 77.2699 32.1217 88.3936 32.1217 88.3936C32.1217 88.3936 30.5639 90.3959 30.1193 90.8407C29.6748 91.2855 28.7845 90.8407 29.2295 91.5083C29.6745 92.1758 28.562 92.6206 28.562 92.6206C28.562 92.6206 23.6676 92.6206 24.1126 90.8407C24.5576 89.0609 32.1217 76.3791 32.1217 76.3791L31.0094 64.5881C31.0094 64.5881 30.1191 58.8047 35.4588 59.2497Z" fill="#E5E5E5"/>
</g>
<defs>
<clipPath id="clip0_3185_65260">
<rect width="156.282" height="150" fill="white"/>
</clipPath>
</defs>
</svg>
