<?xml version="1.0" encoding="UTF-8"?>
<svg width="126px" height="120px" viewBox="0 0 126 120" version="1.1" xmlns="http://www.w3.org/2000/svg" xmlns:xlink="http://www.w3.org/1999/xlink">
    <title>noun_Up hand drawn arrow_1563367</title>
    <g id="Page-1" stroke="none" stroke-width="1" fill="none" fill-rule="evenodd">
        <g id="edubroker-intekenen-okt" transform="translate(-826.000000, -784.000000)" fill="#898585" fill-rule="nonzero">
            <g id="noun_Up-hand-drawn-arrow_1563367" transform="translate(889.194661, 843.942296) scale(-1, 1) rotate(-58.000000) translate(-889.194661, -843.942296) translate(849.194661, 795.442296)">
                <path d="M-4.15738133,61.0293834 C7.67641413,66.6304861 23.0213357,68.1580596 36.9357985,65.4423734 C50.7202196,62.7266873 62.8140985,56.3617978 71.2668095,48.978526 C75.5581859,45.3293227 78.9392703,41.3406586 81.6701462,37.097399 C81.2800211,40.5768719 81.5401045,44.0563448 82.5804382,47.5358177 C82.7104799,48.0450089 83.2306467,49.2331216 84.4010221,48.8936608 C85.4413558,48.5542 85.5713975,47.1114917 85.4413558,46.5174354 C84.2709804,42.5287713 84.1409387,38.5401072 85.1812723,34.5514432 C85.1812723,34.466578 85.1812723,34.3817128 85.1812723,34.2968476 C86.4816894,33.4481957 85.7014392,29.7989924 83.6207718,30.9871051 C80.7598543,32.6844089 77.6388533,34.2119824 74.2577688,35.4849603 C72.5672266,36.0790166 70.7466427,36.673073 69.0561005,37.1822642 C67.2355166,37.6914553 65.4149327,38.2006465 63.464307,38.0309161 C62.2939317,37.9460509 62.0338482,39.4736244 62.0338482,39.9828155 C62.0338482,40.5768719 62.2939317,41.8498498 63.464307,41.934715 C65.5449744,42.1044454 67.6256417,41.5952542 69.5762673,41.086063 C71.526893,40.5768719 73.3474769,39.9828155 75.1680608,39.303894 C75.6882276,39.1341636 76.3384362,38.879568 76.858603,38.6249724 C72.1771015,44.6504011 65.4149327,50.0817735 57.4823884,54.240168 C51.890595,57.2104497 45.7786347,59.6715403 39.0164659,61.283979 C32.3843387,62.8964176 25.2320448,63.4056088 18.2097925,62.8964176 C10.5373317,62.3023613 3.12495434,60.4353271 -3.24708937,57.4650453 C-4.28742304,56.9558541 -4.93763158,58.3985624 -5.06767329,58.8228884 C-5.32775671,59.4169447 -5.197715,60.5201922 -4.15738133,61.0293834 Z" id="Path" transform="translate(40.317032, 48.751519) rotate(122.000000) translate(-40.317032, -48.751519) "></path>
            </g>
        </g>
    </g>
</svg>