<svg version="1.1" id="Layer_1" xmlns="http://www.w3.org/2000/svg" xmlns:xlink="http://www.w3.org/1999/xlink" x="0px" y="0px"
	 width="100%" viewBox="0 0 381 381" enable-background="new 0 0 381 381" xml:space="preserve">
<path fill="#73BF45" opacity="1.000000" stroke="none" 
	d="
M176.000000,1.000000 
	C185.354233,1.000000 194.708450,1.000000 204.777618,1.333905 
	C208.960983,2.057235 212.433578,2.412882 215.897202,2.841034 
	C296.564453,12.812594 362.797882,74.779282 378.146790,154.683350 
	C379.570587,162.095444 380.722076,169.559875 382.000000,177.000000 
	C382.000000,186.687561 382.000000,196.375122 381.651184,206.746063 
	C380.567017,212.696289 379.910919,217.975647 379.084381,223.228149 
	C367.020752,299.891937 305.242096,363.562317 228.815903,378.072144 
	C221.235260,379.511322 213.606445,380.696777 206.000000,382.000000 
	C196.312439,382.000000 186.624878,382.000000 176.263458,381.649719 
	C168.351639,380.204163 161.070663,379.336517 153.882339,377.978577 
	C77.647751,363.577271 15.216516,298.562439 3.912513,221.938034 
	C3.028520,215.945862 1.974825,209.978760 1.000001,204.000000 
	C1.000000,195.979095 1.000000,187.958191 1.353572,179.250900 
	C2.205879,174.099396 2.601322,169.619965 3.218678,165.171295 
	C14.359838,84.888245 75.350540,20.517990 155.175797,4.798058 
	C162.098068,3.434859 169.057709,2.261527 176.000000,1.000000 
M116.054985,179.061005 
	C116.054985,179.061005 115.721474,178.725784 116.051010,178.130676 
	C123.068611,172.348206 131.303879,169.533737 140.125198,167.918930 
	C143.675140,167.269073 145.820374,168.150696 148.043671,171.123291 
	C156.836349,182.879211 168.549026,188.264130 183.334534,186.031189 
	C191.795151,184.753448 199.974533,179.324692 202.161377,173.683929 
	C179.376266,182.445648 166.775665,178.772949 152.156403,159.283035 
	C151.310791,158.155731 149.506546,157.082321 148.161758,157.098389 
	C135.867386,157.245102 123.925751,159.153000 113.177429,165.627396 
	C104.221901,171.021851 98.851562,178.813568 97.711563,189.385300 
	C96.231667,203.109039 100.666290,214.928589 108.964951,225.607712 
	C110.032585,226.981598 111.415436,228.754105 111.338547,230.275574 
	C110.438225,248.093872 114.079376,265.012817 121.063240,281.217255 
	C115.566002,286.784912 110.206612,292.212952 104.270256,298.225342 
	C138.579727,298.225342 171.360504,298.225342 204.141281,298.225342 
	C204.312622,297.695496 204.483963,297.165680 204.655304,296.635834 
	C198.103012,293.175018 191.623306,289.564514 184.959732,286.333191 
	C182.571121,285.174866 181.841415,283.968903 182.256882,281.384033 
	C184.475922,267.577820 186.563919,253.750351 188.652573,239.923492 
	C190.085556,230.437241 191.445755,220.940018 192.838486,211.447693 
	C192.456604,211.152893 192.074722,210.858093 191.692856,210.563293 
	C189.056503,212.623138 186.058899,214.355194 183.843475,216.796951 
	C171.198303,230.733978 158.739517,244.840118 146.216980,258.888428 
	C145.091415,260.151154 143.962601,261.410950 141.943054,263.670288 
	C141.943054,232.576172 141.943054,202.993790 141.943054,173.366257 
	C133.164795,175.438049 124.775818,177.417969 116.054985,179.061005 
M278.374359,126.866058 
	C279.712860,115.954948 275.897064,106.562317 269.522980,98.086510 
	C261.698822,87.682533 251.128571,80.824760 239.241867,75.973450 
	C217.904572,67.265038 195.726868,65.456718 173.057098,68.568962 
	C155.633423,70.960999 139.418365,76.516159 125.433350,87.562050 
	C117.009979,94.215157 110.437134,102.320206 107.536652,112.790054 
	C106.292580,117.280731 106.201981,122.090965 105.587303,126.756004 
	C115.386108,98.287689 140.066483,90.977272 164.971024,82.496613 
	C153.872009,103.288696 155.786667,120.230789 169.996796,131.886841 
	C182.687164,142.296265 201.491791,142.371384 214.347916,132.064026 
	C228.554535,120.673943 230.586182,103.792427 219.688721,82.508278 
	C226.653229,84.879593 233.008957,86.678627 239.076126,89.178101 
	C257.012085,96.567131 272.383789,106.727242 278.374359,126.866058 
M240.067322,249.500061 
	C240.046448,226.015625 240.057266,202.531006 239.934113,179.047104 
	C239.925797,177.463089 239.325119,174.936447 238.281433,174.475632 
	C234.723831,172.904922 230.844543,172.062851 226.185272,170.673477 
	C226.185272,173.544205 226.185272,175.477097 226.185272,177.409988 
	C226.185211,212.553177 226.252197,247.696762 226.049240,282.838776 
	C226.034103,285.460571 224.418869,288.280609 222.944504,290.630066 
	C221.360855,293.153656 219.065170,295.230408 216.787491,297.837097 
	C240.462463,297.837097 263.200958,297.837097 285.939453,297.837097 
	C286.033325,297.420746 286.127228,297.004395 286.221130,296.588043 
	C280.818817,294.085205 275.545807,291.226196 269.969727,289.202087 
	C266.115082,287.802826 265.160217,285.748383 265.194763,281.861237 
	C265.385681,260.377075 265.285950,238.890320 265.285858,217.404449 
	C265.285858,215.655258 265.285889,213.906067 265.285889,210.761719 
	C261.188477,213.076202 258.272980,214.826187 255.264191,216.397583 
	C251.134659,218.554276 249.789734,221.693909 249.870026,226.459000 
	C250.178711,244.775085 249.995041,263.099487 249.995026,281.420776 
	C249.995026,283.185547 249.995041,284.950348 249.995041,286.705566 
	C246.398560,286.705566 243.491577,286.705566 240.069992,286.705566 
	C240.069992,274.419189 240.069992,262.459625 240.067322,249.500061 
z"/>
<path fill="#FEFFFE" opacity="1.000000" stroke="none" 
	d="
M175.531342,1.000000 
	C169.057709,2.261527 162.098068,3.434859 155.175797,4.798058 
	C75.350540,20.517990 14.359838,84.888245 3.218678,165.171295 
	C2.601322,169.619965 2.205879,174.099396 1.353572,178.782257 
	C1.000000,119.740265 1.000000,60.480530 1.000000,1.000000 
	C59.020706,1.000000 117.041695,1.000000 175.531342,1.000000 
z"/>
<path fill="#FEFFFE" opacity="1.000000" stroke="none" 
	d="
M1.000001,204.468658 
	C1.974825,209.978760 3.028520,215.945862 3.912513,221.938034 
	C15.216516,298.562439 77.647751,363.577271 153.882339,377.978577 
	C161.070663,379.336517 168.351639,380.204163 175.794800,381.649719 
	C117.739029,382.000000 59.478050,382.000000 1.000000,382.000000 
	C1.000000,322.979279 1.000000,263.958313 1.000001,204.468658 
z"/>
<path fill="#FEFFFE" opacity="1.000000" stroke="none" 
	d="
M382.000000,176.531342 
	C380.722076,169.559875 379.570587,162.095444 378.146790,154.683350 
	C362.797882,74.779282 296.564453,12.812594 215.897202,2.841034 
	C212.433578,2.412882 208.960983,2.057235 205.246277,1.333905 
	C263.926819,1.000000 322.853607,1.000000 382.000000,1.000000 
	C382.000000,59.354046 382.000000,117.708366 382.000000,176.531342 
z"/>
<path fill="#FEFFFE" opacity="1.000000" stroke="none" 
	d="
M206.468658,382.000000 
	C213.606445,380.696777 221.235260,379.511322 228.815903,378.072144 
	C305.242096,363.562317 367.020752,299.891937 379.084381,223.228149 
	C379.910919,217.975647 380.567017,212.696289 381.651184,207.214722 
	C382.000000,265.260559 382.000000,323.521118 382.000000,382.000000 
	C323.645966,382.000000 265.291626,382.000000 206.468658,382.000000 
z"/>
<path fill="#FCFDFA" opacity="1.000000" stroke="none" 
	d="
M116.386833,179.397888 
	C124.775818,177.417969 133.164795,175.438049 141.943054,173.366257 
	C141.943054,202.993790 141.943054,232.576172 141.943054,263.670288 
	C143.962601,261.410950 145.091415,260.151154 146.216980,258.888428 
	C158.739517,244.840118 171.198303,230.733978 183.843475,216.796951 
	C186.058899,214.355194 189.056503,212.623138 191.692856,210.563293 
	C192.074722,210.858093 192.456604,211.152893 192.838486,211.447693 
	C191.445755,220.940018 190.085556,230.437241 188.652573,239.923492 
	C186.563919,253.750351 184.475922,267.577820 182.256882,281.384033 
	C181.841415,283.968903 182.571121,285.174866 184.959732,286.333191 
	C191.623306,289.564514 198.103012,293.175018 204.655304,296.635834 
	C204.483963,297.165680 204.312622,297.695496 204.141281,298.225342 
	C171.360504,298.225342 138.579727,298.225342 104.270256,298.225342 
	C110.206612,292.212952 115.566002,286.784912 121.063240,281.217255 
	C114.079376,265.012817 110.438225,248.093872 111.338547,230.275574 
	C111.415436,228.754105 110.032585,226.981598 108.964951,225.607712 
	C100.666290,214.928589 96.231667,203.109039 97.711563,189.385300 
	C98.851562,178.813568 104.221901,171.021851 113.177429,165.627396 
	C123.925751,159.153000 135.867386,157.245102 148.161758,157.098389 
	C149.506546,157.082321 151.310791,158.155731 152.156403,159.283035 
	C166.775665,178.772949 179.376266,182.445648 202.161377,173.683929 
	C199.974533,179.324692 191.795151,184.753448 183.334534,186.031189 
	C168.549026,188.264130 156.836349,182.879211 148.043671,171.123291 
	C145.820374,168.150696 143.675140,167.269073 140.125198,167.918930 
	C131.303879,169.533737 123.068611,172.348206 115.682945,178.557068 
	C115.672195,179.121597 116.029518,179.259735 116.386833,179.397888 
M135.172745,199.788574 
	C133.735062,201.096512 131.612762,202.130280 130.962677,203.753616 
	C121.592720,227.151199 122.045509,250.743164 130.140640,274.361664 
	C130.654678,275.861420 132.030273,277.065948 133.005066,278.407806 
	C133.682938,278.258789 134.360825,278.109741 135.038696,277.960724 
	C135.102798,252.162170 135.166901,226.363602 135.172745,199.788574 
M150.599716,285.907593 
	C167.658188,285.208069 169.993622,283.215637 173.411743,266.452057 
	C173.511520,265.962769 173.703659,265.484863 173.746399,264.992462 
	C174.321762,258.365631 174.878220,251.737167 175.439362,245.109116 
	C174.765152,244.930679 174.090942,244.752243 173.416733,244.573807 
	C162.639816,256.930481 151.410004,268.955017 143.728226,284.776642 
	C146.548691,285.302887 148.135361,285.598907 150.599716,285.907593 
M111.339920,186.291061 
	C104.562035,192.905136 107.030434,211.472015 112.538048,219.510559 
	C116.549919,208.553345 120.819565,196.892075 124.972969,185.548309 
	C121.405991,185.721497 116.796280,185.945328 111.339920,186.291061 
z"/>
<path fill="#FDFEFC" opacity="1.000000" stroke="none" 
	d="
M278.043579,126.956909 
	C272.383789,106.727242 257.012085,96.567131 239.076126,89.178101 
	C233.008957,86.678627 226.653229,84.879593 219.688721,82.508278 
	C230.586182,103.792427 228.554535,120.673943 214.347916,132.064026 
	C201.491791,142.371384 182.687164,142.296265 169.996796,131.886841 
	C155.786667,120.230789 153.872009,103.288696 164.971024,82.496613 
	C140.066483,90.977272 115.386108,98.287689 105.587303,126.756004 
	C106.201981,122.090965 106.292580,117.280731 107.536652,112.790054 
	C110.437134,102.320206 117.009979,94.215157 125.433350,87.562050 
	C139.418365,76.516159 155.633423,70.960999 173.057098,68.568962 
	C195.726868,65.456718 217.904572,67.265038 239.241867,75.973450 
	C251.128571,80.824760 261.698822,87.682533 269.522980,98.086510 
	C275.897064,106.562317 279.712860,115.954948 278.043579,126.956909 
M172.018768,92.116745 
	C168.498718,93.548767 166.375183,96.325912 167.699844,99.837067 
	C168.515182,101.998184 171.094193,104.282928 173.339203,104.934547 
	C176.890503,105.965317 180.446426,102.756989 180.673859,99.367775 
	C180.963150,95.056801 178.067749,92.345642 172.018768,92.116745 
z"/>
<path fill="#FDFEFC" opacity="1.000000" stroke="none" 
	d="
M240.068665,250.000061 
	C240.069992,262.459625 240.069992,274.419189 240.069992,286.705566 
	C243.491577,286.705566 246.398560,286.705566 249.995041,286.705566 
	C249.995041,284.950348 249.995026,283.185547 249.995026,281.420776 
	C249.995041,263.099487 250.178711,244.775085 249.870026,226.459000 
	C249.789734,221.693909 251.134659,218.554276 255.264191,216.397583 
	C258.272980,214.826187 261.188477,213.076202 265.285889,210.761719 
	C265.285889,213.906067 265.285858,215.655258 265.285858,217.404449 
	C265.285950,238.890320 265.385681,260.377075 265.194763,281.861237 
	C265.160217,285.748383 266.115082,287.802826 269.969727,289.202087 
	C275.545807,291.226196 280.818817,294.085205 286.221130,296.588043 
	C286.127228,297.004395 286.033325,297.420746 285.939453,297.837097 
	C263.200958,297.837097 240.462463,297.837097 216.787491,297.837097 
	C219.065170,295.230408 221.360855,293.153656 222.944504,290.630066 
	C224.418869,288.280609 226.034103,285.460571 226.049240,282.838776 
	C226.252197,247.696762 226.185211,212.553177 226.185272,177.409988 
	C226.185272,175.477097 226.185272,173.544205 226.185272,170.673477 
	C230.844543,172.062851 234.723831,172.904922 238.281433,174.475632 
	C239.325119,174.936447 239.925797,177.463089 239.934113,179.047104 
	C240.057266,202.531006 240.046448,226.015625 240.068665,250.000061 
z"/>
<path fill="#75C047" opacity="1.000000" stroke="none" 
	d="
M135.201874,200.176804 
	C135.166901,226.363602 135.102798,252.162170 135.038696,277.960724 
	C134.360825,278.109741 133.682938,278.258789 133.005066,278.407806 
	C132.030273,277.065948 130.654678,275.861420 130.140640,274.361664 
	C122.045509,250.743164 121.592720,227.151199 130.962677,203.753616 
	C131.612762,202.130280 133.735062,201.096512 135.201874,200.176804 
z"/>
<path fill="#75C048" opacity="1.000000" stroke="none" 
	d="
M150.160858,285.901276 
	C148.135361,285.598907 146.548691,285.302887 143.728226,284.776642 
	C151.410004,268.955017 162.639816,256.930481 173.416733,244.573807 
	C174.090942,244.752243 174.765152,244.930679 175.439362,245.109116 
	C174.878220,251.737167 174.321762,258.365631 173.746399,264.992462 
	C173.703659,265.484863 173.511520,265.962769 173.411743,266.452057 
	C169.993622,283.215637 167.658188,285.208069 150.160858,285.901276 
z"/>
<path fill="#78C14B" opacity="1.000000" stroke="none" 
	d="
M111.763245,186.230103 
	C116.796280,185.945328 121.405991,185.721497 124.972969,185.548309 
	C120.819565,196.892075 116.549919,208.553345 112.538048,219.510559 
	C107.030434,211.472015 104.562035,192.905136 111.763245,186.230103 
z"/>
<path fill="#73BF45" opacity="1.000000" stroke="none" 
	d="
M116.220909,179.229446 
	C116.029518,179.259735 115.672195,179.121597 115.518173,178.854614 
	C115.721474,178.725784 116.054985,179.061005 116.220909,179.229446 
z"/>
<path fill="#78C14B" opacity="1.000000" stroke="none" 
	d="
M172.409180,92.055626 
	C178.067749,92.345642 180.963150,95.056801 180.673859,99.367775 
	C180.446426,102.756989 176.890503,105.965317 173.339203,104.934547 
	C171.094193,104.282928 168.515182,101.998184 167.699844,99.837067 
	C166.375183,96.325912 168.498718,93.548767 172.409180,92.055626 
z"/>
</svg>