<svg version="1.1" id="Layer_1" xmlns="http://www.w3.org/2000/svg" xmlns:xlink="http://www.w3.org/1999/xlink" x="0px" y="0px"
	 width="100%" viewBox="0 0 381 381" enable-background="new 0 0 381 381" xml:space="preserve">
<path fill="#ADADAD" opacity="1.000000" stroke="none" 
	d="
M177.000000,1.000000 
	C186.354233,1.000000 195.708450,1.000000 205.808533,1.294605 
	C209.684036,2.002290 212.813721,2.415032 215.943329,2.828500 
	C297.693054,13.628859 362.107513,74.012970 378.238983,155.045898 
	C379.688080,162.325027 380.755402,169.680161 382.000000,177.000000 
	C382.000000,186.687561 382.000000,196.375122 381.701233,206.798859 
	C380.992950,210.328812 380.550201,213.118164 380.178711,215.916992 
	C369.317688,297.744446 309.058411,362.041046 227.957138,378.243530 
	C220.678452,379.697662 213.320908,380.757202 206.000000,382.000000 
	C196.645767,382.000000 187.291550,382.000000 177.181839,381.715942 
	C170.999817,380.666260 165.556686,380.002258 160.149216,379.119781 
	C82.181671,366.395569 19.558865,305.226837 4.876697,227.416397 
	C3.410080,219.643829 2.284081,211.807007 0.999999,204.000000 
	C1.000000,195.979095 1.000000,187.958191 1.301272,179.196182 
	C2.149716,173.837448 2.592958,169.204742 3.259510,164.604416 
	C14.895413,84.297096 75.550041,20.422424 155.053070,4.787216 
	C162.335327,3.355071 169.682800,2.254526 177.000000,1.000000 
M163.167725,84.139801 
	C163.334686,84.285194 163.501663,84.430580 163.452057,85.251083 
	C162.731689,86.565086 161.975327,87.860786 161.296509,89.195915 
	C154.350449,102.858162 157.130981,119.823990 167.997406,130.160690 
	C179.242767,140.857864 196.169662,142.762680 210.126816,134.901611 
	C223.166916,127.557053 229.721741,112.378197 225.964584,97.195572 
	C224.804413,92.507339 222.502670,88.101601 220.547867,83.118523 
	C233.842133,86.447281 246.142532,91.249474 257.276855,98.783394 
	C267.479889,105.687157 274.840179,114.745415 277.963776,127.104408 
	C278.528351,124.515701 278.797119,122.094177 278.485352,119.749855 
	C276.238556,102.856293 266.496887,90.685730 252.231812,82.858360 
	C212.750381,61.194565 172.697708,61.432556 132.940460,82.370132 
	C123.858017,87.153275 116.596062,94.426414 111.465942,103.506439 
	C107.411423,110.682724 105.097710,118.285126 106.375298,127.860458 
	C107.142120,126.109375 107.567085,125.439987 107.734360,124.711426 
	C109.929810,115.149063 115.581284,107.908066 123.155060,102.056236 
	C134.937134,92.952904 148.280090,87.126381 163.167725,84.139801 
M201.216812,174.027023 
	C180.279724,182.500549 166.157791,178.262222 152.368347,159.607697 
	C151.376068,158.265305 149.123154,157.104965 147.469406,157.122070 
	C136.029022,157.240387 124.900818,159.094299 114.734604,164.728516 
	C104.944572,170.154251 98.857841,178.168259 97.671677,189.591751 
	C96.265320,203.135788 100.744560,214.741760 108.740875,225.404297 
	C110.191208,227.338211 111.189117,230.173706 111.147072,232.571075 
	C110.916481,245.716095 112.104942,258.845123 117.399651,270.752258 
	C121.370789,279.682831 119.490593,284.985504 112.153580,290.133820 
	C109.399475,292.066315 107.483109,295.192719 104.672218,298.350677 
	C138.735184,298.350677 171.423111,298.350677 204.111023,298.350677 
	C202.905899,296.219177 201.464401,294.889801 199.795578,293.975189 
	C194.979492,291.335571 190.140701,288.716125 185.171539,286.385834 
	C182.606812,285.183044 181.891953,283.732971 182.340775,280.940857 
	C184.903076,265.000824 187.308228,249.035263 189.714813,233.070541 
	C190.793472,225.914886 191.751404,218.741043 192.764114,211.575455 
	C192.356155,211.286057 191.948212,210.996658 191.540253,210.707275 
	C189.019409,212.660553 186.146805,214.294403 184.035416,216.619507 
	C171.388168,230.546982 158.917267,244.634567 146.383408,258.665039 
	C145.251053,259.932617 144.091553,261.175934 141.950317,263.518219 
	C141.950317,232.503235 141.950317,203.096329 141.950317,173.463623 
	C133.047867,175.489822 124.667076,177.397278 116.021469,179.037598 
	C116.021469,179.037598 115.754860,178.772202 116.110451,178.191452 
	C123.042778,172.238205 131.332504,169.538528 140.149033,167.951843 
	C143.690247,167.314545 145.952957,168.329590 148.148865,171.284088 
	C154.824341,180.265549 163.715424,185.549179 175.074020,186.592285 
	C183.651764,187.380035 198.754211,182.512650 202.322479,173.985886 
	C202.205429,173.979050 202.088379,173.972214 201.216812,174.027023 
M226.212311,196.499969 
	C226.197128,223.807632 226.041367,251.116486 226.276672,278.421997 
	C226.328293,284.411438 225.613953,289.512207 220.560349,293.371796 
	C219.207901,294.404694 218.367126,296.107544 216.828690,298.103088 
	C240.353271,298.103088 262.995483,298.103088 285.637695,298.103088 
	C285.802185,297.604858 285.966675,297.106628 286.131134,296.608398 
	C280.674927,294.068024 275.325104,291.252502 269.723999,289.086792 
	C266.165009,287.710693 265.091522,285.738220 265.119415,282.036011 
	C265.280182,260.723846 265.204803,239.409897 265.184357,218.096573 
	C265.182526,216.179764 265.002106,214.263123 264.847290,211.219238 
	C261.692474,212.839874 259.431122,214.060059 257.119965,215.177155 
	C251.578842,217.855453 249.637512,221.936340 249.821503,228.318695 
	C250.325073,245.787766 250.003220,263.280884 249.983124,280.764496 
	C249.980911,282.696747 249.816803,284.628815 249.733292,286.441284 
	C240.140167,287.941437 240.101349,287.910065 240.086716,279.162994 
	C240.085052,278.163940 240.086426,277.164856 240.085587,276.165802 
	C240.058578,244.029358 240.057220,211.892807 239.935699,179.756714 
	C239.928940,177.971268 239.432190,175.152405 238.295532,174.599731 
	C234.823410,172.911499 230.926956,172.095932 226.212814,170.636581 
	C226.212814,179.644379 226.212814,187.572174 226.212311,196.499969 
z"/>
<path fill="#FFFFFF" opacity="1.000000" stroke="none" 
	d="
M176.531342,1.000000 
	C169.682800,2.254526 162.335327,3.355071 155.053070,4.787216 
	C75.550041,20.422424 14.895413,84.297096 3.259510,164.604416 
	C2.592958,169.204742 2.149716,173.837448 1.301272,178.727539 
	C1.000000,119.740059 1.000000,60.480114 1.000000,1.000000 
	C59.354042,1.000000 117.708366,1.000000 176.531342,1.000000 
z"/>
<path fill="#FFFFFF" opacity="1.000000" stroke="none" 
	d="
M0.999999,204.468658 
	C2.284081,211.807007 3.410080,219.643829 4.876697,227.416397 
	C19.558865,305.226837 82.181671,366.395569 160.149216,379.119781 
	C165.556686,380.002258 170.999817,380.666260 176.713181,381.715942 
	C118.405899,382.000000 59.811798,382.000000 1.000000,382.000000 
	C1.000000,322.979279 1.000000,263.958313 0.999999,204.468658 
z"/>
<path fill="#FFFFFF" opacity="1.000000" stroke="none" 
	d="
M382.000000,176.531342 
	C380.755402,169.680161 379.688080,162.325027 378.238983,155.045898 
	C362.107513,74.012970 297.693054,13.628859 215.943329,2.828500 
	C212.813721,2.415032 209.684036,2.002290 206.277191,1.294605 
	C264.593689,1.000000 323.187347,1.000000 382.000000,1.000000 
	C382.000000,59.354046 382.000000,117.708366 382.000000,176.531342 
z"/>
<path fill="#FFFFFF" opacity="1.000000" stroke="none" 
	d="
M206.468658,382.000000 
	C213.320908,380.757202 220.678452,379.697662 227.957138,378.243530 
	C309.058411,362.041046 369.317688,297.744446 380.178711,215.916992 
	C380.550201,213.118164 380.992950,210.328812 381.701233,207.267517 
	C382.000000,265.260559 382.000000,323.521118 382.000000,382.000000 
	C323.645966,382.000000 265.291626,382.000000 206.468658,382.000000 
z"/>
<path fill="#FDFDFD" opacity="1.000000" stroke="none" 
	d="
M202.060333,174.053299 
	C198.754211,182.512650 183.651764,187.380035 175.074020,186.592285 
	C163.715424,185.549179 154.824341,180.265549 148.148865,171.284088 
	C145.952957,168.329590 143.690247,167.314545 140.149033,167.951843 
	C131.332504,169.538528 123.042778,172.238205 115.807297,178.598450 
	C115.764862,179.105225 116.025574,179.204987 116.286293,179.304749 
	C124.667076,177.397278 133.047867,175.489822 141.950317,173.463623 
	C141.950317,203.096329 141.950317,232.503235 141.950317,263.518219 
	C144.091553,261.175934 145.251053,259.932617 146.383408,258.665039 
	C158.917267,244.634567 171.388168,230.546982 184.035416,216.619507 
	C186.146805,214.294403 189.019409,212.660553 191.540253,210.707275 
	C191.948212,210.996658 192.356155,211.286057 192.764114,211.575455 
	C191.751404,218.741043 190.793472,225.914886 189.714813,233.070541 
	C187.308228,249.035263 184.903076,265.000824 182.340775,280.940857 
	C181.891953,283.732971 182.606812,285.183044 185.171539,286.385834 
	C190.140701,288.716125 194.979492,291.335571 199.795578,293.975189 
	C201.464401,294.889801 202.905899,296.219177 204.111023,298.350677 
	C171.423111,298.350677 138.735184,298.350677 104.672218,298.350677 
	C107.483109,295.192719 109.399475,292.066315 112.153580,290.133820 
	C119.490593,284.985504 121.370789,279.682831 117.399651,270.752258 
	C112.104942,258.845123 110.916481,245.716095 111.147072,232.571075 
	C111.189117,230.173706 110.191208,227.338211 108.740875,225.404297 
	C100.744560,214.741760 96.265320,203.135788 97.671677,189.591751 
	C98.857841,178.168259 104.944572,170.154251 114.734604,164.728516 
	C124.900818,159.094299 136.029022,157.240387 147.469406,157.122070 
	C149.123154,157.104965 151.376068,158.265305 152.368347,159.607697 
	C166.157791,178.262222 180.279724,182.500549 201.615784,174.018738 
	C202.014740,174.010452 202.060333,174.053299 202.060333,174.053299 
M130.561996,204.234604 
	C122.052132,226.398453 122.200630,248.788681 128.978165,271.293488 
	C129.718338,273.751251 131.306992,275.953461 132.502075,278.274200 
	C133.325897,278.089081 134.149719,277.903992 134.973526,277.718872 
	C135.264557,251.527618 135.123657,225.331192 135.188965,199.137238 
	C134.760101,199.010666 134.331238,198.884094 133.902374,198.757523 
	C132.898209,200.359985 131.894043,201.962463 130.561996,204.234604 
M174.885040,257.157318 
	C174.885040,253.193634 174.885040,249.229950 174.885040,245.266266 
	C174.310303,245.095856 173.735580,244.925446 173.160843,244.755035 
	C168.258591,250.536972 163.159256,256.165771 158.511917,262.145813 
	C154.239578,267.643311 150.207901,273.365875 146.529922,279.275452 
	C143.480530,284.174957 144.580170,285.998413 150.216461,285.834900 
	C154.167923,285.720306 158.122650,285.024841 162.032272,284.339783 
	C166.710266,283.520050 169.880417,280.767548 170.966797,276.066193 
	C172.347504,270.091095 173.531662,264.070587 174.885040,257.157318 
M115.644386,186.035339 
	C113.020195,186.085571 110.420151,185.704300 109.146767,189.124939 
	C104.930511,200.450867 108.363441,210.648178 112.373749,220.155182 
	C116.573936,208.615036 120.822571,196.941803 125.032852,185.373947 
	C124.400757,185.443192 122.952850,185.640030 121.498390,185.751007 
	C119.844765,185.877197 118.185272,185.926636 115.644386,186.035339 
z"/>
<path fill="#FEFEFE" opacity="1.000000" stroke="none" 
	d="
M162.704300,83.664001 
	C148.280090,87.126381 134.937134,92.952904 123.155060,102.056236 
	C115.581284,107.908066 109.929810,115.149063 107.734360,124.711426 
	C107.567085,125.439987 107.142120,126.109375 106.375298,127.860458 
	C105.097710,118.285126 107.411423,110.682724 111.465942,103.506439 
	C116.596062,94.426414 123.858017,87.153275 132.940460,82.370132 
	C172.697708,61.432556 212.750381,61.194565 252.231812,82.858360 
	C266.496887,90.685730 276.238556,102.856293 278.485352,119.749855 
	C278.797119,122.094177 278.528351,124.515701 277.963776,127.104408 
	C274.840179,114.745415 267.479889,105.687157 257.276855,98.783394 
	C246.142532,91.249474 233.842133,86.447281 220.547867,83.118523 
	C222.502670,88.101601 224.804413,92.507339 225.964584,97.195572 
	C229.721741,112.378197 223.166916,127.557053 210.126816,134.901611 
	C196.169662,142.762680 179.242767,140.857864 167.997406,130.160690 
	C157.130981,119.823990 154.350449,102.858162 161.296509,89.195915 
	C161.975327,87.860786 162.731689,86.565086 163.738037,84.772270 
	C164.156372,84.016663 164.288742,83.739861 164.421112,83.463074 
	C163.848846,83.530045 163.276566,83.597023 162.704300,83.664001 
M171.271484,92.418251 
	C168.106216,94.090523 166.346481,96.912476 167.688187,100.128380 
	C168.540359,102.170914 170.984924,104.288483 173.130707,104.889404 
	C176.942978,105.957001 180.642548,102.690163 180.716919,99.088417 
	C180.809509,94.602913 177.536240,91.996750 171.271484,92.418251 
z"/>
<path fill="#FEFEFE" opacity="1.000000" stroke="none" 
	d="
M226.212555,195.999969 
	C226.212814,187.572174 226.212814,179.644379 226.212814,170.636581 
	C230.926956,172.095932 234.823410,172.911499 238.295532,174.599731 
	C239.432190,175.152405 239.928940,177.971268 239.935699,179.756714 
	C240.057220,211.892807 240.058578,244.029358 240.085587,276.165802 
	C240.086426,277.164856 240.085052,278.163940 240.086716,279.162994 
	C240.101349,287.910065 240.140167,287.941437 249.733292,286.441284 
	C249.816803,284.628815 249.980911,282.696747 249.983124,280.764496 
	C250.003220,263.280884 250.325073,245.787766 249.821503,228.318695 
	C249.637512,221.936340 251.578842,217.855453 257.119965,215.177155 
	C259.431122,214.060059 261.692474,212.839874 264.847290,211.219238 
	C265.002106,214.263123 265.182526,216.179764 265.184357,218.096573 
	C265.204803,239.409897 265.280182,260.723846 265.119415,282.036011 
	C265.091522,285.738220 266.165009,287.710693 269.723999,289.086792 
	C275.325104,291.252502 280.674927,294.068024 286.131134,296.608398 
	C285.966675,297.106628 285.802185,297.604858 285.637695,298.103088 
	C262.995483,298.103088 240.353271,298.103088 216.828690,298.103088 
	C218.367126,296.107544 219.207901,294.404694 220.560349,293.371796 
	C225.613953,289.512207 226.328293,284.411438 226.276672,278.421997 
	C226.041367,251.116486 226.197128,223.807632 226.212555,195.999969 
z"/>
<path fill="#FDFDFD" opacity="1.000000" stroke="none" 
	d="
M201.993042,173.987915 
	C202.088379,173.972214 202.205429,173.979050 202.191406,174.019592 
	C202.060333,174.053299 202.014740,174.010452 201.993042,173.987915 
z"/>
<path fill="#AFAFAF" opacity="1.000000" stroke="none" 
	d="
M130.725937,203.899765 
	C131.894043,201.962463 132.898209,200.359985 133.902374,198.757523 
	C134.331238,198.884094 134.760101,199.010666 135.188965,199.137238 
	C135.123657,225.331192 135.264557,251.527618 134.973526,277.718872 
	C134.149719,277.903992 133.325897,278.089081 132.502075,278.274200 
	C131.306992,275.953461 129.718338,273.751251 128.978165,271.293488 
	C122.200630,248.788681 122.052132,226.398453 130.725937,203.899765 
z"/>
<path fill="#AFAFAF" opacity="1.000000" stroke="none" 
	d="
M174.842804,257.613464 
	C173.531662,264.070587 172.347504,270.091095 170.966797,276.066193 
	C169.880417,280.767548 166.710266,283.520050 162.032272,284.339783 
	C158.122650,285.024841 154.167923,285.720306 150.216461,285.834900 
	C144.580170,285.998413 143.480530,284.174957 146.529922,279.275452 
	C150.207901,273.365875 154.239578,267.643311 158.511917,262.145813 
	C163.159256,256.165771 168.258591,250.536972 173.160843,244.755035 
	C173.735580,244.925446 174.310303,245.095856 174.885040,245.266266 
	C174.885040,249.229950 174.885040,253.193634 174.842804,257.613464 
z"/>
<path fill="#B0B0B0" opacity="1.000000" stroke="none" 
	d="
M116.086365,186.022400 
	C118.185272,185.926636 119.844765,185.877197 121.498390,185.751007 
	C122.952850,185.640030 124.400757,185.443192 125.032852,185.373947 
	C120.822571,196.941803 116.573936,208.615036 112.373749,220.155182 
	C108.363441,210.648178 104.930511,200.450867 109.146767,189.124939 
	C110.420151,185.704300 113.020195,186.085571 116.086365,186.022400 
z"/>
<path fill="#ADADAD" opacity="1.000000" stroke="none" 
	d="
M116.153885,179.171173 
	C116.025574,179.204987 115.764862,179.105225 115.629501,178.888824 
	C115.754860,178.772202 116.021469,179.037598 116.153885,179.171173 
z"/>
<path fill="#B0B0B0" opacity="1.000000" stroke="none" 
	d="
M171.645477,92.290916 
	C177.536240,91.996750 180.809509,94.602913 180.716919,99.088417 
	C180.642548,102.690163 176.942978,105.957001 173.130707,104.889404 
	C170.984924,104.288483 168.540359,102.170914 167.688187,100.128380 
	C166.346481,96.912476 168.106216,94.090523 171.645477,92.290916 
z"/>
<path fill="#ADADAD" opacity="1.000000" stroke="none" 
	d="
M162.936005,83.901901 
	C163.276566,83.597023 163.848846,83.530045 164.421112,83.463074 
	C164.288742,83.739861 164.156372,84.016663 163.846329,84.434715 
	C163.501663,84.430580 163.334686,84.285194 162.936005,83.901901 
z"/>
</svg>