<?xml version="1.0" encoding="UTF-8"?>
<svg width="34px" height="34px" viewBox="0 0 34 34" version="1.1" xmlns="http://www.w3.org/2000/svg" xmlns:xlink="http://www.w3.org/1999/xlink">
    <g id="Page-1" stroke="none" stroke-width="1" fill="none" fill-rule="evenodd" stroke-linecap="round" stroke-linejoin="round">
        <g id="Intekenontvanger-result" transform="translate(-792.000000, -632.000000)" stroke="#D51D2F" stroke-width="1.5">
            <g id="Group-3" transform="translate(793.000000, 633.000000)">
                <line x1="13.4265734" y1="31.3286713" x2="17.9020979" y2="31.3286713" id="Path"></line>
                <path d="M24.6154429,15.6643357 C24.6320405,11.0086664 21.0769563,7.11756307 16.4387098,6.71481849 C11.8004633,6.31207391 7.62790457,9.5321766 6.8418466,14.1210378 C6.05578863,18.7098989 8.91871988,23.1351597 13.4265734,24.2991142 L13.4265734,26.8531469 L17.9020979,26.8531469 L17.9020979,24.2991142 C21.8468917,23.2881972 24.6081578,19.7365953 24.6154429,15.6643357 L24.6154429,15.6643357 Z" id="Path"></path>
                <line x1="15.6643357" y1="2.23776224" x2="15.6643357" y2="2.71372668e-12" id="Path"></line>
                <line x1="29.0909091" y1="13.4265734" x2="31.3286713" y2="13.4265734" id="Path"></line>
                <line x1="-2.71281573e-13" y1="15.6643357" x2="2.23776224" y2="15.6643357" id="Path"></line>
                <line x1="25.1584149" y1="24.0395338" x2="26.7412587" y2="25.6223776" id="Path"></line>
                <line x1="4.58741259" y1="3.46853147" x2="6.17025641" y2="5.05137529" id="Path"></line>
                <line x1="25.1584149" y1="5.05137529" x2="26.7412587" y2="3.46853147" id="Path"></line>
                <line x1="4.58741259" y1="25.6223776" x2="6.17025641" y2="24.0395338" id="Path"></line>
            </g>
        </g>
    </g>
</svg>
