<svg width="16" height="17" viewBox="0 0 16 17" fill="none" xmlns="http://www.w3.org/2000/svg">
    <g clip-path="url(#clip0_373_64875)">
        <path d="M15.5 16.4992C15.3667 16.4992 15.2407 16.4472 15.1467 16.3525L8 9.20654L0.853333 16.3525C0.758667 16.4472 0.633333 16.4992 0.5 16.4992C0.366667 16.4992 0.240667 16.4472 0.146667 16.3525C-0.048 16.1579 -0.048 15.8405 0.146667 15.6452L7.29333 8.49854L0.146667 1.35254C0.052 1.25854 0 1.13254 0 0.999202C0 0.865868 0.052 0.739868 0.146667 0.645868C0.240667 0.551202 0.366667 0.499202 0.5 0.499202C0.633333 0.499202 0.759333 0.551202 0.853333 0.645868L8 7.79187L15.1467 0.645202C15.2413 0.550535 15.3667 0.498535 15.5 0.498535C15.6333 0.498535 15.7593 0.550535 15.8533 0.645202C15.948 0.739868 16 0.865868 16 0.999202C16 1.13254 15.948 1.25854 15.8533 1.35254L8.70667 8.4992L15.8533 15.6459C16.048 15.8405 16.048 16.1579 15.8533 16.3532C15.7593 16.4472 15.6333 16.4992 15.5 16.4992Z"
              fill="#888F99"/>
    </g>
    <defs>
        <clipPath id="clip0_373_64875">
            <rect width="16" height="16" fill="white" transform="translate(0 0.5)"/>
        </clipPath>
    </defs>
</svg>
